<?xml version="1.0" encoding="UTF-8"?>
<svg version="1.1" xmlns="http://www.w3.org/2000/svg" width="532" height="556">
<path d="M0 0 C175.56 0 351.12 0 532 0 C532 183.48 532 366.96 532 556 C356.44 556 180.88 556 0 556 C0 372.52 0 189.04 0 0 Z " fill="#FEFEFE" transform="translate(0,0)"/>
<path d="M0 0 C0.68586182 0.15146484 1.37172363 0.30292969 2.07836914 0.45898438 C30.05226143 6.46444387 57.62336496 6.92925159 85.78515625 1.375 C88.54458536 0.90779507 91.20850099 0.84910816 94 1 C93.5206753 5.31392226 92.2542015 7.16569547 89 10 C89.33 10.66 89.66 11.32 90 12 C90.5941389 17.71287408 90.23057886 22.09843208 87 27 C80.00037729 35.19955804 70.56044609 39.35296316 60 41 C58.33750457 41.01900984 56.67426041 41.00013563 55.01245117 40.94873047 C45.47142979 40.61988923 45.47142979 40.61988923 37.16226196 44.58987427 C33.14610745 49.77817144 30.89315493 55.88543873 28.5 61.9375 C27.68733658 63.814173 26.86646107 65.68731026 26.03759766 67.55688477 C24.39690081 71.28060956 22.79820315 75.01803445 21.23144531 78.7734375 C19.28725831 83.3917999 17.17938672 87.89850349 14.9296875 92.375 C14.62045349 92.99250626 14.31121948 93.61001251 13.99261475 94.24623108 C13.12264197 95.97794527 12.24889863 97.70776365 11.375 99.4375 C7.33351617 107.37620491 7.33351617 107.37620491 5.02734375 115.921875 C3.94828684 122.39557265 1.059094 127.96167063 -1.8125 133.8125 C-2.59463867 135.47055664 -2.59463867 135.47055664 -3.39257812 137.16210938 C-7.36873743 145.37751967 -7.36873743 145.37751967 -10.47436523 148.43994141 C-13.30293767 151.30706664 -14.72611527 153.93697938 -16.453125 157.56640625 C-16.75470016 158.1933136 -17.05627533 158.82022095 -17.36698914 159.46612549 C-18.33861465 161.49337944 -19.29464418 163.52753506 -20.25 165.5625 C-20.92064288 166.97191372 -21.59195295 168.38101015 -22.26391602 169.78979492 C-26.97797425 179.7028827 -31.56566826 189.67068508 -35.98388672 199.71923828 C-37.0604101 202.13559614 -38.16954371 204.53505035 -39.28515625 206.93359375 C-39.65713135 207.74272217 -40.02910645 208.55185059 -40.41235352 209.38549805 C-41.10897257 210.89992129 -41.813205 212.41087968 -42.52709961 213.91723633 C-44.09332418 217.35545864 -45.17786941 220.38209751 -45.58203125 224.15234375 C-46.71028694 234.5386228 -52.94304111 246.56606283 -59.92578125 254.296875 C-63.19209838 258.0219417 -65.22671821 261.94176786 -67.25 266.4375 C-67.75660156 267.50581055 -67.75660156 267.50581055 -68.2734375 268.59570312 C-70.14487371 272.65170955 -71.33863595 276.45863875 -72.33398438 280.82836914 C-73.76613991 285.49809917 -76.30164029 289.72478227 -78.625 294 C-79.3984375 295.44826172 -79.3984375 295.44826172 -80.1875 296.92578125 C-81.45056072 299.2881726 -82.72148424 301.64594802 -84 304 C-80.73636832 304.87212868 -77.8254909 305.16445244 -74.4375 305.1875 C-73.48746094 305.20167969 -72.53742188 305.21585937 -71.55859375 305.23046875 C-68.75774757 305.18358888 -68.75774757 305.18358888 -66 303 C-66.33 304.32 -66.66 305.64 -67 307 C-65.72125 307.144375 -64.4425 307.28875 -63.125 307.4375 C-60.74307106 307.70642746 -59.15547309 307.92226346 -57 309 C-51.04581625 308.95149341 -46.34775878 307.45996904 -41 305 C-40.01 305 -39.02 305 -38 305 C-38 307.64 -38 310.28 -38 313 C-33.71 313 -29.42 313 -25 313 C-25.99 314.32 -26.98 315.64 -28 317 C-27.77100357 320.32044817 -27.4949015 323.010197 -26 326 C-25.43005181 333.06735751 -25.43005181 333.06735751 -27.375 336.25 C-31.95936889 339.30624593 -37.09658378 340.95336122 -42.25390625 342.8125 C-46.38901418 344.30803961 -46.38901418 344.30803961 -50.1484375 346.546875 C-54.16620905 348.59428735 -57.86108788 348.56453281 -62.3125 348.6875 C-63.14845703 348.72166016 -63.98441406 348.75582031 -64.84570312 348.79101562 C-66.89667772 348.87305461 -68.94831538 348.9382151 -71 349 C-71.33 349.66 -71.66 350.32 -72 351 C-76.75055432 351.04956835 -81.50095688 351.08579909 -86.25170898 351.10986328 C-87.86664453 351.11989896 -89.481562 351.13353051 -91.09643555 351.15087891 C-93.42240875 351.17523465 -95.74814095 351.18650747 -98.07421875 351.1953125 C-98.79212082 351.20563507 -99.51002289 351.21595764 -100.24967957 351.22659302 C-104.28499868 351.22748903 -107.36821174 350.78957682 -111 349 C-111.66 349.66 -112.32 350.32 -113 351 C-118.918497 351.7739573 -124.55226616 350.7737478 -130.30664062 349.45849609 C-132.99208582 349.00134725 -135.32009441 348.99718192 -138.03515625 349.1171875 C-144.49184347 349.17572206 -150.29123474 347.78118428 -156.5 346.125 C-157.56992188 345.85558594 -158.63984375 345.58617187 -159.7421875 345.30859375 C-167.56781539 343.28812307 -167.56781539 343.28812307 -171 341 C-171.7013284 338.67684969 -172.36485174 336.34210921 -173 334 C-173.7425 332.824375 -173.7425 332.824375 -174.5 331.625 C-175.88284997 329.20501255 -176.72681733 327.1622085 -177.5 324.5 C-177.82484375 323.40171875 -177.82484375 323.40171875 -178.15625 322.28125 C-178 320 -178 320 -175.92578125 317.48828125 C-172.96161394 314.96735391 -169.95152898 312.80373857 -166.6875 310.6875 C-165.08455078 309.64142578 -165.08455078 309.64142578 -163.44921875 308.57421875 C-162.64097656 308.05472656 -161.83273438 307.53523438 -161 307 C-162.98 306.34 -164.96 305.68 -167 305 C-167.33 303.35 -167.66 301.7 -168 300 C-166.845 300.0825 -165.69 300.165 -164.5 300.25 C-158.34739321 300.27934471 -152.66143935 298.56404907 -146.76953125 296.97265625 C-143.51332141 296.13245288 -140.32377401 295.49107081 -137 295 C-137 294.34 -137 293.68 -137 293 C-136.38213623 293.20858643 -135.76427246 293.41717285 -135.12768555 293.63208008 C-127.00655062 296.1333393 -119.2708499 296.53970058 -110.8125 296.6875 C-109.46546362 296.72076617 -108.11845708 296.75526396 -106.77148438 296.79101562 C-103.51440713 296.87273441 -100.25757341 296.94213163 -97 297 C-96.86464844 295.72125 -96.72929687 294.4425 -96.58984375 293.125 C-96.30335343 290.41834861 -96.17674013 289.24589931 -94.5625 287 C-93 286 -93 286 -91 286 C-90.5978125 284.7625 -90.5978125 284.7625 -90.1875 283.5 C-89.30708952 280.90510594 -88.39207276 278.34390804 -87.42578125 275.78125 C-87.15805908 275.07033203 -86.89033691 274.35941406 -86.61450195 273.62695312 C-86.41171631 273.09005859 -86.20893066 272.55316406 -86 272 C-86.97888184 272.15710449 -86.97888184 272.15710449 -87.97753906 272.31738281 C-106.28453298 274.85022435 -106.28453298 274.85022435 -114.03417969 270.16601562 C-119.56416958 265.60248726 -124.27168708 260.31565014 -128.76611328 254.74414062 C-129.5032959 253.83857422 -130.24047852 252.93300781 -131 252 C-131.47520584 251.38824417 -131.95041168 250.77648834 -132.4400177 250.14619446 C-136.38131808 245.30592746 -140.54046707 242.12615999 -145.80554199 238.81214905 C-161.83059014 228.48948413 -179.59613203 214.32254254 -184.7723999 195.13716888 C-188.40621722 177.91184192 -188.15049105 160.13964737 -187.9375 142.625 C-187.92878124 140.19054273 -187.92038725 137.75608428 -187.912323 135.32162476 C-187.86915804 129.43823079 -187.70076853 123.57053723 -187.4276886 117.69340706 C-187.32894577 115.49856514 -187.25136801 113.30264885 -187.19697571 111.1062603 C-186.87085224 100.47050657 -186.16297926 92.11209698 -178.26486015 84.42113304 C-175.27654201 81.79209757 -172.19727953 79.29030619 -169.09327507 76.7997551 C-165.99365768 74.13476746 -163.55890369 71.11681395 -161.1105957 67.859375 C-160.66839471 67.28045281 -160.22619371 66.70153063 -159.77059269 66.10506535 C-158.87147071 64.92741429 -157.97417206 63.748369 -157.07866287 62.56796837 C-141.32694489 42.15560814 -122.36214745 17.73791698 -95.41096592 13.90705681 C-73.57035495 11.47254287 -51.23736786 13.65782754 -29.50749493 16.27685738 C-22.23726062 17.13671078 -14.97699187 17.49635147 -7.65641785 17.56697083 C-2.40944266 17.68847727 -2.40944266 17.68847727 0.0090332 19.52856445 C0.49956177 20.25692505 0.49956177 20.25692505 1 21 C1.06058594 20.32453125 1.12117187 19.6490625 1.18359375 18.953125 C1.26738281 18.06109375 1.35117187 17.1690625 1.4375 16.25 C1.55931641 14.92742187 1.55931641 14.92742187 1.68359375 13.578125 C2 11 2 11 2.625 8.80078125 C2.810625 7.90939453 2.810625 7.90939453 3 7 C2.04701223 5.63266972 1.04625409 4.29735507 0 3 C0 2.01 0 1.02 0 0 Z " fill="#F6BDBA" transform="translate(331,68)"/>
<path d="M0 0 C3.61462908 0.04455956 4.84564914 0.55552768 7.54174805 3.03564453 C8.37746338 4.01645996 9.21317871 4.99727539 10.07421875 6.0078125 C11.03976883 7.1123853 12.00901026 8.21373955 12.98144531 9.31225586 C13.49090698 9.88837616 14.00036865 10.46449646 14.52526855 11.05807495 C17.2220613 14.01564683 20.09121248 16.789929 22.96484375 19.57421875 C24.14138073 20.72450231 25.3178124 21.87489359 26.49414062 23.02539062 C28.28759983 24.7754736 30.0846014 26.52122831 31.8918457 28.25708008 C33.67795263 29.97613916 35.44730488 31.71109939 37.21484375 33.44921875 C37.75028305 33.95571457 38.28572235 34.46221039 38.83738708 34.98405457 C45.07949904 41.18158046 47.56227679 48.0143554 47.65600586 56.74958801 C47.64633789 57.72232162 47.63666992 58.69505524 47.62670898 59.69726562 C47.63481346 61.27226082 47.63481346 61.27226082 47.64308167 62.8790741 C47.65551795 66.32592562 47.63911109 69.77193354 47.62109375 73.21875 C47.62124886 75.62813358 47.62273975 78.03751741 47.62550354 80.44689941 C47.62688526 85.48701052 47.614367 90.52683628 47.59155273 95.56689453 C47.5631693 102.01278308 47.56590872 108.45819779 47.57864285 114.9041214 C47.58561272 119.87652603 47.57779571 124.84882202 47.56538582 129.82121277 C47.56088407 132.19735802 47.56052331 134.57351499 47.56445122 136.94966125 C47.5673762 140.27592701 47.55079417 143.60155004 47.52905273 146.92773438 C47.53580521 148.38683479 47.53580521 148.38683479 47.54269409 149.87541199 C47.46234039 157.31080558 46.54532203 165.02763667 41.1730957 170.62890625 C40.55657135 171.28262207 39.940047 171.93633789 39.30484009 172.60986328 C38.58549286 173.3367334 37.86614563 174.06360352 37.125 174.8125 C36.27360443 175.69019043 35.42220886 176.56788086 34.54501343 177.47216797 C31.50672109 180.58972532 28.43257517 183.67082136 25.35546875 186.75 C24.22676044 187.88192728 23.09812502 189.01392724 21.96955872 190.14599609 C19.62054782 192.50095436 17.26952067 194.8538781 14.91723633 197.20556641 C11.89805394 200.22464631 8.88586068 203.25060004 5.87530041 206.27827454 C3.55479014 208.60986466 1.22978847 210.93693488 -1.09653282 213.26272583 C-2.21015655 214.37753157 -3.32215457 215.4939637 -4.43250465 216.61203003 C-5.97612345 218.16538657 -7.5258759 219.71235016 -9.07739258 221.2578125 C-9.95784744 222.13969238 -10.83830231 223.02157227 -11.74543762 223.93017578 C-13.875 225.8125 -13.875 225.8125 -15.875 225.8125 C-16.205 226.8025 -16.535 227.7925 -16.875 228.8125 C-18.3359375 230.25 -18.3359375 230.25 -20.25 231.8125 C-24.83727785 235.65301169 -28.84029201 239.95318562 -32.87109375 244.359375 C-41.40736145 251.33047528 -51.98875746 250.20705086 -62.37890625 250.10546875 C-64.06997804 250.09986481 -65.76105475 250.09559849 -67.45213318 250.09260559 C-71.87612653 250.08121953 -76.29981853 250.05180702 -80.72369385 250.01849365 C-85.24869716 249.98765732 -89.77374975 249.97407143 -94.29882812 249.95898438 C-103.15768357 249.92693055 -112.0163166 249.87581083 -120.875 249.8125 C-120.52652512 249.13798294 -120.17805023 248.46346588 -119.8190155 247.76850891 C-119.36464615 246.87721786 -118.91027679 245.98592682 -118.44213867 245.06762695 C-117.99053879 244.18685989 -117.5389389 243.30609283 -117.07365417 242.39863586 C-115.75073732 239.54439917 -115.0406388 236.84207863 -114.38134766 233.78662109 C-113.41989989 230.03818008 -111.71623208 226.60998342 -110.0625 223.125 C-109.73185547 222.39216797 -109.40121094 221.65933594 -109.06054688 220.90429688 C-106.90078103 216.30702178 -104.51390292 213.40640875 -100.875 209.8125 C-99.14484604 207.15718689 -97.69629876 204.38028896 -96.25 201.5625 C-95.8684375 200.84964844 -95.486875 200.13679687 -95.09375 199.40234375 C-91.83029866 193.15677309 -89.20347215 187.02142021 -88.48144531 179.96777344 C-88.00178447 175.86332627 -86.68687056 172.6123903 -84.8828125 168.875 C-84.43009476 167.92370964 -84.43009476 167.92370964 -83.9682312 166.95320129 C-82.98914211 164.90116888 -81.99471509 162.85699648 -81 160.8125 C-80.31515725 159.38430593 -79.63157579 157.9555064 -78.94921875 156.52612305 C-77.91615574 154.36212261 -76.88245287 152.19846974 -75.84454346 150.03678894 C-72.7606034 143.60829612 -69.80988888 137.12274648 -66.875 130.625 C-56.89348585 108.71834655 -56.89348585 108.71834655 -52.96313477 105.00732422 C-49.10351518 100.95050438 -47.13517437 95.70158919 -44.75 90.6875 C-43.94369141 89.05167969 -43.94369141 89.05167969 -43.12109375 87.3828125 C-42.60417969 86.30515625 -42.08726562 85.2275 -41.5546875 84.1171875 C-41.08788574 83.14765137 -40.62108398 82.17811523 -40.14013672 81.17919922 C-39.07858217 78.35425956 -38.51451612 76.02212146 -38.0144043 73.08032227 C-36.93445774 67.28843616 -34.61387237 62.45096669 -31.96484375 57.22265625 C-31.47850967 56.23865341 -30.9921756 55.25465057 -30.49110413 54.24082947 C-28.94257861 51.11327269 -27.37817283 47.99400228 -25.8125 44.875 C-24.28057928 41.79684608 -22.75201517 38.71704219 -21.2237854 35.63705444 C-20.22285948 33.62093113 -19.22025142 31.60564201 -18.21591187 29.59121704 C-14.5622636 22.25080496 -11.01651689 14.8645116 -7.55540466 7.43141174 C-4.52457397 0.94870099 -4.52457397 0.94870099 0 0 Z " fill="#F6BCB9" transform="translate(373.875,109.1875)"/>
<path d="M0 0 C4.29 0.33 8.58 0.66 13 1 C11.45071107 5.64786678 9.73031131 9.86162467 7.578125 14.22265625 C7.24122147 14.91286865 6.90431793 15.60308105 6.5572052 16.31420898 C5.83359641 17.79570751 5.10835317 19.27640864 4.38162231 20.75637817 C3.23750689 23.08795958 2.09930345 25.42234276 0.96264648 27.75756836 C-2.39163761 34.64454606 -5.75848986 41.52490277 -9.16592407 48.38575745 C-10.4599094 50.99491029 -11.74522556 53.60827814 -13.0291748 56.22238159 C-13.91352551 58.01393161 -14.81059773 59.79918432 -15.70800781 61.58422852 C-18.48504952 67.24425831 -20.40334091 72.21655249 -21.40600586 78.42504883 C-22.66312771 83.87464362 -25.36066422 88.81692165 -27.8125 93.8125 C-28.33392578 94.91787109 -28.85535156 96.02324219 -29.39257812 97.16210938 C-33.36873743 105.37751967 -33.36873743 105.37751967 -36.47436523 108.43994141 C-39.30293767 111.30706664 -40.72611527 113.93697938 -42.453125 117.56640625 C-42.75470016 118.1933136 -43.05627533 118.82022095 -43.36698914 119.46612549 C-44.33861465 121.49337944 -45.29464418 123.52753506 -46.25 125.5625 C-46.92064288 126.97191372 -47.59195295 128.38101015 -48.26391602 129.78979492 C-52.97797425 139.7028827 -57.56566826 149.67068508 -61.98388672 159.71923828 C-63.0604101 162.13559614 -64.16954371 164.53505035 -65.28515625 166.93359375 C-65.65713135 167.74272217 -66.02910645 168.55185059 -66.41235352 169.38549805 C-67.10897257 170.89992129 -67.813205 172.41087968 -68.52709961 173.91723633 C-70.09332418 177.35545864 -71.17786941 180.38209751 -71.58203125 184.15234375 C-72.71028694 194.5386228 -78.94304111 206.56606283 -85.92578125 214.296875 C-89.19209838 218.0219417 -91.22671821 221.94176786 -93.25 226.4375 C-93.58773437 227.14970703 -93.92546875 227.86191406 -94.2734375 228.59570312 C-96.14487371 232.65170955 -97.33863595 236.45863875 -98.33398438 240.82836914 C-99.76613991 245.49809917 -102.30164029 249.72478227 -104.625 254 C-105.3984375 255.44826172 -105.3984375 255.44826172 -106.1875 256.92578125 C-107.45056072 259.2881726 -108.72148424 261.64594802 -110 264 C-106.73636832 264.87212868 -103.8254909 265.16445244 -100.4375 265.1875 C-99.48746094 265.20167969 -98.53742188 265.21585937 -97.55859375 265.23046875 C-94.75774757 265.18358888 -94.75774757 265.18358888 -92 263 C-92.33 264.32 -92.66 265.64 -93 267 C-91.72125 267.144375 -90.4425 267.28875 -89.125 267.4375 C-86.74307106 267.70642746 -85.15547309 267.92226346 -83 269 C-77.04581625 268.95149341 -72.34775878 267.45996904 -67 265 C-66.01 265 -65.02 265 -64 265 C-64 267.64 -64 270.28 -64 273 C-59.71 273 -55.42 273 -51 273 C-51.99 274.32 -52.98 275.64 -54 277 C-53.77100357 280.32044817 -53.4949015 283.010197 -52 286 C-51.43005181 293.06735751 -51.43005181 293.06735751 -53.375 296.25 C-57.95936889 299.30624593 -63.09658378 300.95336122 -68.25390625 302.8125 C-72.38901418 304.30803961 -72.38901418 304.30803961 -76.1484375 306.546875 C-80.16620905 308.59428735 -83.86108788 308.56453281 -88.3125 308.6875 C-89.14845703 308.72166016 -89.98441406 308.75582031 -90.84570312 308.79101562 C-92.89667772 308.87305461 -94.94831538 308.9382151 -97 309 C-97.33 309.66 -97.66 310.32 -98 311 C-102.75055432 311.04956835 -107.50095688 311.08579909 -112.25170898 311.10986328 C-113.86664453 311.11989896 -115.481562 311.13353051 -117.09643555 311.15087891 C-119.42240875 311.17523465 -121.74814095 311.18650747 -124.07421875 311.1953125 C-124.79212082 311.20563507 -125.51002289 311.21595764 -126.24967957 311.22659302 C-130.28499868 311.22748903 -133.36821174 310.78957682 -137 309 C-137.66 309.66 -138.32 310.32 -139 311 C-144.918497 311.7739573 -150.55226616 310.7737478 -156.30664062 309.45849609 C-158.99208582 309.00134725 -161.32009441 308.99718192 -164.03515625 309.1171875 C-170.49184347 309.17572206 -176.29123474 307.78118428 -182.5 306.125 C-183.56992188 305.85558594 -184.63984375 305.58617187 -185.7421875 305.30859375 C-193.56781539 303.28812307 -193.56781539 303.28812307 -197 301 C-197.7013284 298.67684969 -198.36485174 296.34210921 -199 294 C-199.495 293.21625 -199.99 292.4325 -200.5 291.625 C-201.88284997 289.20501255 -202.72681733 287.1622085 -203.5 284.5 C-203.82484375 283.40171875 -203.82484375 283.40171875 -204.15625 282.28125 C-204 280 -204 280 -201.92578125 277.48828125 C-198.96161394 274.96735391 -195.95152898 272.80373857 -192.6875 270.6875 C-191.61886719 269.99011719 -190.55023438 269.29273438 -189.44921875 268.57421875 C-188.64097656 268.05472656 -187.83273438 267.53523438 -187 267 C-188.98 266.34 -190.96 265.68 -193 265 C-193.33 263.35 -193.66 261.7 -194 260 C-192.845 260.0825 -191.69 260.165 -190.5 260.25 C-184.34739321 260.27934471 -178.66143935 258.56404907 -172.76953125 256.97265625 C-169.51332141 256.13245288 -166.32377401 255.49107081 -163 255 C-163 254.34 -163 253.68 -163 253 C-162.07320435 253.31287964 -162.07320435 253.31287964 -161.12768555 253.63208008 C-153.00655062 256.1333393 -145.2708499 256.53970058 -136.8125 256.6875 C-135.46546362 256.72076617 -134.11845708 256.75526396 -132.77148438 256.79101562 C-129.51440713 256.87273441 -126.25757341 256.94213163 -123 257 C-122.86464844 255.72125 -122.72929687 254.4425 -122.58984375 253.125 C-122.30335343 250.41834861 -122.17674013 249.24589931 -120.5625 247 C-119 246 -119 246 -117 246 C-116.7525 245.175 -116.505 244.35 -116.25 243.5 C-114.81295189 239.47626529 -112.97645485 235.78020976 -111 232 C-110.34 232 -109.68 232 -109 232 C-108.62875 230.80375 -108.2575 229.6075 -107.875 228.375 C-106.05238222 222.80097474 -103.58556147 217.54048886 -101.109375 212.234375 C-99.74657334 209.16784133 -99.74657334 209.16784133 -100.51953125 206.5859375 C-101.27021235 202.54568639 -99.5551002 199.55322178 -97.9375 195.875 C-97.61604004 195.12669922 -97.29458008 194.37839844 -96.96337891 193.60742188 C-90.75955659 179.38357693 -90.75955659 179.38357693 -88 176 C-85.3203125 175.21875 -85.3203125 175.21875 -83 175 C-82.90879883 174.3407251 -82.81759766 173.6814502 -82.72363281 173.00219727 C-81.77401727 169.06244614 -80.14231794 165.62248405 -78.421875 161.96484375 C-78.05844498 161.18129013 -77.69501495 160.39773651 -77.3205719 159.59043884 C-76.53996664 157.90933972 -75.75689216 156.22938537 -74.97158813 154.55047607 C-73.74363366 151.92388241 -72.52359138 149.2937412 -71.30541992 146.66259766 C-67.85737382 139.22424294 -64.39251506 131.79469146 -60.85067749 124.40046692 C-59.61659118 121.8232949 -58.39110929 119.24207341 -57.16589355 116.66067505 C-56.32829283 114.90804556 -55.47531759 113.16279028 -54.62207031 111.41772461 C-53.87521973 109.84583374 -53.87521973 109.84583374 -53.11328125 108.2421875 C-52.67798096 107.3435498 -52.24268066 106.44491211 -51.79418945 105.51904297 C-50.77781613 103.03937014 -50.77781613 103.03937014 -51.55322266 100.61303711 C-52.19664283 96.84990807 -50.66372472 94.24620019 -49.03515625 90.94921875 C-48.72299667 90.29041214 -48.4108371 89.63160553 -48.08921814 88.95283508 C-47.09303839 86.85802391 -46.07816645 84.77292165 -45.0625 82.6875 C-44.38220894 81.26557352 -43.70315788 79.84305307 -43.02539062 78.41992188 C-41.36454999 74.93956849 -39.68689097 71.46779706 -38 68 C-36.35 68.33 -34.7 68.66 -33 69 C-32.73823975 68.14978271 -32.47647949 67.29956543 -32.20678711 66.42358398 C-30.94653957 62.8483359 -29.40600973 59.6029147 -27.69140625 56.22265625 C-27.36863205 55.58267197 -27.04585785 54.94268768 -26.71330261 54.28330994 C-26.02329341 52.91565676 -25.33158227 51.54886112 -24.63830566 50.18286133 C-22.81872983 46.59656469 -21.01258263 43.00352931 -19.20703125 39.41015625 C-18.84680878 38.69364899 -18.4865863 37.97714172 -18.115448 37.23892212 C-14.03784366 29.11071131 -10.12562884 20.90635891 -6.234375 12.6875 C-4.21580078 8.42722764 -2.12384726 4.20872485 0 0 Z " fill="#D6462D" transform="translate(357,108)"/>
<path d="M0 0 C0.639375 -0.01289063 1.27875 -0.02578125 1.9375 -0.0390625 C5.29216738 1.04103874 6.7976493 2.91212766 9 5.625 C9.46978417 8.52705133 9.63702648 10.82921789 9.56762695 13.7199707 C9.56835709 14.52049362 9.56908722 15.32101654 9.56983948 16.14579773 C9.56636685 18.78149097 9.52752334 21.41539829 9.48828125 24.05078125 C9.47895192 25.88208552 9.47183637 27.71340229 9.46684265 29.54472351 C9.44778226 34.35697077 9.39868984 39.16845948 9.34332275 43.98040771 C9.29210951 48.89373514 9.26932418 53.80718553 9.24414062 58.72070312 C9.19057009 68.35580142 9.10526894 77.99033755 9 87.625 C10.98 87.625 12.96 87.625 15 87.625 C14.99111755 86.80925003 14.98223511 85.99350006 14.9730835 85.1530304 C14.8928709 77.4580778 14.83200205 69.76332846 14.79275131 62.0680666 C14.77189348 58.11200917 14.74360964 54.15629775 14.69824219 50.20043945 C14.65471879 46.38139136 14.63084931 42.56267567 14.62049103 38.74339867 C14.6131112 37.28773962 14.5986998 35.83209838 14.57707977 34.37658119 C14.54795724 32.33439733 14.54404736 30.29357946 14.54589844 28.2512207 C14.53701599 27.08984085 14.52813354 25.928461 14.51898193 24.73188782 C15.10226245 20.96448851 16.34157664 19.30772624 19 16.625 C21.18359375 15.9609375 21.18359375 15.9609375 23.4375 16 C24.17871094 15.98710937 24.91992188 15.97421875 25.68359375 15.9609375 C29.3867077 17.02253846 30.68081606 18.52856963 33 21.625 C33.72451548 25.53210096 33.62902317 29.3845989 33.55859375 33.34765625 C33.55509666 35.05410561 33.55509666 35.05410561 33.55152893 36.79502869 C33.54179771 39.19651808 33.52002532 41.59798472 33.48706055 43.99926758 C33.43763315 47.67759124 33.42557789 51.35457727 33.41992188 55.03320312 C33.40583637 57.36720175 33.38963215 59.70118875 33.37109375 62.03515625 C33.3630497 63.68681541 33.3630497 63.68681541 33.35484314 65.37184143 C33.33885574 66.39647995 33.32286835 67.42111847 33.30639648 68.47680664 C33.29043678 69.82652306 33.29043678 69.82652306 33.27415466 71.20350647 C32.9835816 73.77001687 32.17659809 75.35710252 31 77.625 C31.1868335 78.38611084 31.37366699 79.14722168 31.56616211 79.93139648 C32.18516678 83.77465961 30.62898045 86.37358113 28.94140625 89.72265625 C28.60586227 90.41774796 28.2703183 91.11283966 27.92460632 91.82899475 C26.81593327 94.12122621 25.68928377 96.4041243 24.5625 98.6875 C22.988178 101.92197827 21.424342 105.16144718 19.86328125 108.40234375 C19.4610434 109.23511841 19.05880554 110.06789307 18.64437866 110.92590332 C15.78876729 116.87564547 13.09366468 122.88163205 10.48046875 128.94140625 C10.12163101 129.76977493 9.76279327 130.59814362 9.39308167 131.45161438 C7.99839297 134.67638783 6.60599772 137.90154544 5.24661255 141.14138794 C4.30922757 143.37427151 3.3517849 145.59758321 2.390625 147.8203125 C2.1203801 148.48321793 1.85013519 149.14612335 1.57170105 149.82911682 C0.24170297 152.86119383 -0.46220472 154.38512713 -3.54907227 155.76196289 C-4.35787842 156.04676514 -5.16668457 156.33156738 -6 156.625 C-7.54583354 158.69628017 -7.54583354 158.69628017 -8.60546875 161.23828125 C-9.03150391 162.15673828 -9.45753906 163.07519531 -9.89648438 164.02148438 C-10.32251953 164.98376953 -10.74855469 165.94605469 -11.1875 166.9375 C-11.62513672 167.88818359 -12.06277344 168.83886719 -12.51367188 169.81835938 C-14.45008545 174.04890567 -16.29350963 178.29618825 -18 182.625 C-21.8760714 182.07418985 -24.27329871 181.06696398 -27.375 178.6875 C-28.08398438 178.16285156 -28.79296875 177.63820313 -29.5234375 177.09765625 C-36.8440396 169.78860084 -41.11965458 160.76635479 -45.3125 151.4375 C-45.87880801 150.19447546 -46.44571291 148.9517227 -47.01318359 147.70922852 C-48.69204167 144.02180051 -50.3482135 140.32463617 -52 136.625 C-52.68763428 135.08827637 -52.68763428 135.08827637 -53.38916016 133.52050781 C-58.91042625 121.12856562 -64.10527367 108.610794 -69.15869141 96.02124023 C-71.61713055 89.91582358 -74.1974189 83.91443988 -77.04589844 77.97973633 C-78.424577 74.57713788 -78.53874809 72.24230859 -78 68.625 C-75.53000317 66.15500317 -74.71785184 66.3281448 -71.3125 66.3125 C-64.52870496 66.49768981 -60.02437362 68.24602237 -55.3125 73.1875 C-51.68895525 77.61987171 -49.81522579 82.24301477 -48 87.625 C-45.55432536 94.72146575 -42.83346101 101.16228769 -39 107.625 C-37.68386719 107.57859375 -36.36773437 107.5321875 -35.01171875 107.484375 C-13.77356934 106.95700777 -13.77356934 106.95700777 -5.0625 114 C-1.2620958 118.83687808 1.40399218 122.36691794 2 128.625 C3.32 128.295 4.64 127.965 6 127.625 C5.4992819 121.11566467 2.78477161 115.48403218 -1.7578125 110.8203125 C-9.25022012 104.72325205 -16.947455 103.43116317 -26.34375 103.5546875 C-27.45121582 103.56230103 -27.45121582 103.56230103 -28.58105469 103.57006836 C-30.38741471 103.58322147 -32.1937213 103.60339507 -34 103.625 C-34.09268518 92.49841787 -34.1637576 81.3719276 -34.20724869 70.24503803 C-34.22812241 65.07834041 -34.25643634 59.91190693 -34.30175781 54.74536133 C-34.34522292 49.75922741 -34.36913873 44.77334755 -34.37950897 39.7870388 C-34.38689913 37.8848184 -34.4013304 35.98261188 -34.42292023 34.08049965 C-34.45196313 31.41574699 -34.45595565 28.7520437 -34.45410156 26.0871582 C-34.46848267 25.30097107 -34.48286377 24.51478394 -34.49768066 23.70477295 C-34.46950572 19.96176299 -34.13833327 17.84058986 -32.09661865 14.65861511 C-29.38118236 12.02477787 -28.502818 11.67243566 -24.6875 11.3125 C-20.42463889 11.67375942 -18.98007946 12.64492054 -16 15.625 C-14.55042544 18.52414911 -14.88067076 21.039283 -14.88647461 24.27783203 C-14.88632858 24.96087402 -14.88618256 25.64391602 -14.8860321 26.34765625 C-14.88672977 28.6094071 -14.89451535 30.871076 -14.90234375 33.1328125 C-14.90420845 34.69937088 -14.90563211 36.26592984 -14.90663147 37.83248901 C-14.91045257 41.95889898 -14.9202794 46.08527384 -14.93133545 50.21166992 C-14.9415583 54.42105637 -14.94613097 58.63044847 -14.95117188 62.83984375 C-14.96190202 71.10157862 -14.97897358 79.36328495 -15 87.625 C-13.02 87.625 -11.04 87.625 -9 87.625 C-9.01110306 86.60880081 -9.02220612 85.59260162 -9.03364563 84.54560852 C-9.1350213 74.96705557 -9.20996518 65.38861152 -9.25906086 55.80964375 C-9.28515024 50.88499397 -9.32053629 45.9607774 -9.37719727 41.03637695 C-9.43154052 36.28364495 -9.4614255 31.5313295 -9.47438622 26.77831078 C-9.48362195 24.96537913 -9.50165752 23.15247018 -9.52865028 21.33971596 C-9.56497241 18.79930054 -9.56994419 16.26060418 -9.56762695 13.7199707 C-9.58560333 12.97118652 -9.60357971 12.22240234 -9.62210083 11.45092773 C-9.58280305 7.46682347 -9.13881381 5.79599191 -6.59342957 2.66056824 C-4.08090254 0.68849994 -3.11836667 -0.0628703 0 0 Z " fill="#FEFEFD" transform="translate(275,128.375)"/>
<path d="M0 0 C0.92816528 -0.00281982 1.85633057 -0.00563965 2.81262207 -0.00854492 C4.32920914 -0.00550858 4.32920914 -0.00550858 5.87643433 -0.00241089 C6.94669861 -0.00416321 8.01696289 -0.00591553 9.11965942 -0.00772095 C12.65953184 -0.0121246 16.19935436 -0.00920708 19.73922729 -0.00582886 C22.19494639 -0.00650222 24.65066541 -0.00747252 27.10638428 -0.00872803 C32.25272252 -0.0102029 37.39904341 -0.00805679 42.54537964 -0.00338745 C49.15451497 0.0023157 55.76360975 -0.00097422 62.37274361 -0.00695992 C67.44263009 -0.01056607 72.51250688 -0.00942679 77.58239365 -0.00683212 C80.02015055 -0.00616332 82.45790832 -0.00698967 84.89566422 -0.00931168 C88.29552811 -0.01183972 91.69532542 -0.00799569 95.09518433 -0.00241089 C96.11029083 -0.00443512 97.12539734 -0.00645935 98.17126465 -0.00854492 C99.09379028 -0.0057251 100.01631592 -0.00290527 100.96679688 0 C101.77093584 0.00037703 102.57507481 0.00075405 103.40358162 0.0011425 C105.35641479 0.12698364 105.35641479 0.12698364 107.35641479 1.12698364 C108.96709382 4.09063305 110.28932436 6.92571234 111.35641479 10.12698364 C111.02641479 10.78698364 110.69641479 11.44698364 110.35641479 12.12698364 C110.12891329 13.99755156 109.94678669 15.87384322 109.79391479 17.75198364 C109.71012573 18.75487427 109.62633667 19.75776489 109.54000854 20.79104614 C109.47942261 21.56190552 109.41883667 22.33276489 109.35641479 23.12698364 C108.86640991 22.64068481 108.37640503 22.15438599 107.87155151 21.65335083 C104.36545884 19.52559977 101.09922772 19.73298232 97.11422729 19.70510864 C89.88253145 19.54893262 82.81243792 18.98436553 75.65621948 17.97659302 C29.96296559 11.08240579 29.96296559 11.08240579 -12.08743286 25.61038208 C-32.12608992 41.01821008 -49.09727206 61.1829414 -64.47667122 81.12849045 C-66.90779008 84.22648325 -69.21756531 86.60333156 -72.39111328 88.94906616 C-75.99210896 91.94972829 -76.62622373 94.50887665 -77.09256649 99.0859251 C-77.14896077 99.9832879 -77.20535505 100.88065069 -77.26345825 101.8052063 C-77.34680955 102.76708516 -77.43016085 103.72896402 -77.51603794 104.71999073 C-77.77347467 107.90891212 -77.97178496 111.0970526 -78.15530396 114.29104614 C-78.22257439 115.39453966 -78.28984482 116.49803318 -78.35915375 117.6349659 C-78.84496774 126.00410661 -79.12689865 134.37167656 -79.33108521 142.75198364 C-79.36483875 143.97117619 -79.3985923 145.19036873 -79.43336868 146.4465065 C-80.12210329 174.20147009 -80.53292936 199.90090268 -60.88731384 221.29391479 C-51.41686421 231.09638772 -40.50315097 239.55396335 -29.21170044 247.14334106 C-22.85564581 251.47298516 -18.50081836 256.57677762 -13.99514771 262.71682739 C-10.22730696 267.52599268 -6.76346066 271.43011286 -0.60501099 272.80569458 C6.70802286 273.62308986 14.01734388 273.52932429 21.35641479 273.12698364 C20.60745801 278.43020292 19.25287843 282.62024826 16.35641479 287.12698364 C15.63453979 287.62198364 14.91266479 288.11698364 14.16891479 288.62698364 C11.8890607 290.51375945 11.962587 291.44002344 11.60641479 294.31448364 C11.52391479 295.57260864 11.44141479 296.83073364 11.35641479 298.12698364 C11.02641479 298.12698364 10.69641479 298.12698364 10.35641479 298.12698364 C10.35641479 296.14698364 10.35641479 294.16698364 10.35641479 292.12698364 C9.45020386 292.16178833 8.54399292 292.19659302 7.61032104 292.23245239 C-6.66980794 292.54978859 -12.37210036 289.8138749 -22.64358521 280.12698364 C-26.07926049 276.81170382 -29.46290683 273.44819551 -32.83108521 270.06448364 C-33.68122192 269.21821411 -34.53135864 268.37194458 -35.40725708 267.50003052 C-36.24192505 266.66407349 -37.07659302 265.82811646 -37.93655396 264.96682739 C-39.04293213 263.85875732 -39.04293213 263.85875732 -40.17166138 262.728302 C-42.13186684 260.66548825 -43.99111205 258.57554383 -45.84329224 256.41848755 C-50.04843492 251.58163702 -54.5863131 247.11356614 -59.15530396 242.62307739 C-60.98306549 240.81282083 -62.81053067 239.00226501 -64.63772583 237.19143677 C-67.49165079 234.36851936 -70.34733466 231.54750105 -73.20925903 228.73269653 C-75.99105558 225.99598175 -78.76065403 223.24708537 -81.53030396 220.49807739 C-82.8116346 219.24467812 -82.8116346 219.24467812 -84.11885071 217.96595764 C-84.91680557 217.17145706 -85.71476044 216.37695648 -86.53689575 215.55838013 C-87.23526047 214.86969345 -87.93362518 214.18100677 -88.65315247 213.47145081 C-94.43125995 206.66560251 -95.22580434 201.82369473 -95.12942505 193.08621216 C-95.13322174 191.99588684 -95.13701843 190.90556152 -95.14093018 189.78219604 C-95.1483195 186.18979827 -95.12697325 182.59821542 -95.10452271 179.00588989 C-95.10213703 176.50157262 -95.10123322 173.99725354 -95.10174561 171.49293518 C-95.09862025 166.24837882 -95.08256587 161.00403055 -95.0552063 155.759552 C-95.02377587 149.71274929 -95.01320981 143.66620088 -95.01467741 137.61932236 C-95.01590221 131.7828448 -95.00543301 125.94645193 -94.98909378 120.1099987 C-94.98274236 117.63533968 -94.97879077 115.16067327 -94.97730637 112.68600655 C-94.97295484 109.22292676 -94.95541307 105.76016148 -94.93411255 102.29714966 C-94.93501892 101.28027573 -94.93592529 100.26340179 -94.93685913 99.2157135 C-94.82129244 86.32204531 -90.62561942 80.00192213 -81.64358521 71.12698364 C-80.01616646 69.59137479 -78.37191993 68.07562019 -76.72460938 66.56138611 C-68.65206451 59.12979151 -60.87130059 51.42481896 -53.13577271 43.64651489 C-52.31030756 42.81701734 -52.31030756 42.81701734 -51.46816635 41.97076225 C-46.30835216 36.78461033 -41.15504793 31.59201632 -36.00686646 26.39431763 C-33.1592281 23.51983642 -30.30668216 20.65030041 -27.45111465 17.78369713 C-26.37677603 16.70319413 -25.30433238 15.62080323 -24.23391342 14.53641701 C-22.74468818 13.02786977 -21.249304 11.52568322 -19.75247192 10.02468872 C-18.48583206 8.74686272 -18.48583206 8.74686272 -17.19360352 7.44322205 C-11.7051955 2.45797885 -7.3585079 0.00344685 0 0 Z " fill="#F6BEBB" transform="translate(223.64358520507813,66.87301635742188)"/>
<path d="M0 0 C0.91541565 -0.00563965 1.8308313 -0.0112793 2.77398682 -0.01708984 C3.77098099 -0.01304138 4.76797516 -0.00899292 5.79518127 -0.00482178 C6.85087311 -0.00832642 7.90656494 -0.01183105 8.99424744 -0.01544189 C12.48728493 -0.02425113 15.9801202 -0.01841237 19.47315979 -0.01165771 C21.89927204 -0.01300469 24.32538403 -0.0149455 26.75149536 -0.01745605 C31.83818632 -0.02040631 36.92480707 -0.01611314 42.01148987 -0.0067749 C48.53293422 0.00461343 55.05421383 -0.00193664 61.57565212 -0.01391983 C66.5864791 -0.02114621 71.59726702 -0.01884679 76.60809517 -0.01366425 C79.01267071 -0.01232959 81.4172498 -0.01396902 83.82182121 -0.01862335 C87.18282846 -0.02370058 90.5435689 -0.01596094 93.90455627 -0.00482178 C94.89952621 -0.00887024 95.89449615 -0.0129187 96.9196167 -0.01708984 C97.83785217 -0.0114502 98.75608765 -0.00581055 99.70214844 0 C100.8931473 0.00113108 100.8931473 0.00113108 102.10820675 0.002285 C104.41456604 0.25396729 104.41456604 0.25396729 109.41456604 2.25396729 C109.08456604 6.21396729 108.75456604 10.17396729 108.41456604 14.25396729 C106.43456604 12.76896729 106.43456604 12.76896729 104.41456604 11.25396729 C101.61590181 10.97023879 98.97541962 10.85169857 96.17237854 10.83209229 C88.9406827 10.67591626 81.87058916 10.11134918 74.71437073 9.10357666 C29.02111684 2.20938944 29.02111684 2.20938944 -13.02928162 16.73736572 C-33.06793867 32.14519372 -50.03912081 52.30992505 -65.41851997 72.25547409 C-67.84963884 75.3534669 -70.15941407 77.7303152 -73.33296204 80.0760498 C-76.93395772 83.07671193 -77.56807249 85.6358603 -78.03441525 90.21290874 C-78.09080953 91.11027154 -78.14720381 92.00763433 -78.20530701 92.93218994 C-78.2886583 93.8940688 -78.3720096 94.85594767 -78.4578867 95.84697437 C-78.71532342 99.03589576 -78.91363371 102.22403624 -79.09715271 105.41802979 C-79.16442314 106.5215233 -79.23169357 107.62501682 -79.3010025 108.76194954 C-79.78681649 117.13109025 -80.06874741 125.49866021 -80.27293396 133.87896729 C-80.30668751 135.09815983 -80.34044106 136.31735237 -80.37521744 137.57349014 C-81.06395205 165.32845373 -81.47477812 191.02788633 -61.8291626 212.42089844 C-52.35871296 222.22337136 -41.44499972 230.68094699 -30.15354919 238.27032471 C-23.79749456 242.5999688 -19.44266711 247.70376126 -14.93699646 253.84381104 C-11.16915571 258.65297632 -7.70530942 262.5570965 -1.54685974 263.93267822 C5.7661741 264.7500735 13.07549512 264.65630793 20.41456604 264.25396729 C19.91658234 267.98884506 19.53964848 270.06634363 17.41456604 273.25396729 C13.41887803 274.00748643 9.34786896 273.85601308 5.28956604 273.87896729 C4.17323792 273.92408447 3.05690979 273.96920166 1.90675354 274.01568604 C-3.53037587 274.060568 -7.52666833 273.96857813 -11.76121521 270.33599854 C-13.05909166 268.99737243 -14.33231698 267.63458344 -15.58543396 266.25396729 C-17.21754461 264.65679683 -18.85455368 263.06462156 -20.49559021 261.47662354 C-22.21565223 259.75918557 -23.93306471 258.03909028 -25.64793396 256.31646729 C-26.93667419 255.03352783 -26.93667419 255.03352783 -28.25144958 253.72467041 C-29.09514099 252.87968994 -29.9388324 252.03470947 -30.80809021 251.16412354 C-31.55840515 250.41268066 -32.30872009 249.66123779 -33.08177185 248.88702393 C-35.04372816 246.82366958 -36.90340696 244.73593813 -38.75559998 242.57720947 C-43.14198425 237.53141123 -47.88461668 232.86710499 -52.64012146 228.17193604 C-53.59216154 227.22685854 -54.54382498 226.28140148 -55.49513245 225.33558655 C-59.49910454 221.35584463 -63.50896199 217.38206948 -67.52293396 213.41241455 C-69.99261803 210.96948262 -72.45743173 208.52172393 -74.91930008 206.07091713 C-76.30768626 204.69173902 -77.70163527 203.31816819 -79.09565735 201.94468689 C-79.93388031 201.10984268 -80.77210327 200.27499847 -81.63572693 199.41485596 C-82.37628326 198.68175705 -83.1168396 197.94865814 -83.87983704 197.19334412 C-86.51674128 194.19500909 -86.71162497 191.59312515 -86.72587585 187.7575531 C-86.731586 186.83654312 -86.73729614 185.91553314 -86.74317932 184.96661377 C-86.74429718 183.95824463 -86.74541504 182.94987549 -86.74656677 181.91094971 C-86.75153168 180.84725662 -86.75649658 179.78356354 -86.76161194 178.68763733 C-86.77624137 175.1615637 -86.7830369 171.63553506 -86.78855896 168.10943604 C-86.79430977 165.6618703 -86.80006751 163.21430459 -86.80583191 160.76673889 C-86.81634412 155.63121327 -86.82218535 150.49570332 -86.82566833 145.36016846 C-86.83115345 138.77934712 -86.85518116 132.19873264 -86.88364029 125.61797619 C-86.90226302 120.56078995 -86.90747208 115.50365357 -86.90900421 110.44643593 C-86.91203209 108.0203469 -86.92006511 105.59425877 -86.93318939 103.16820335 C-86.95024178 99.77369825 -86.94837133 96.379699 -86.94187927 92.98516846 C-86.95109406 91.98287201 -86.96030884 90.98057556 -86.96980286 89.94790649 C-86.92264824 82.07798797 -85.16084231 77.45743137 -79.44676208 71.80279541 C-78.9356488 71.31230713 -78.42453552 70.82181885 -77.89793396 70.31646729 C-77.40615662 69.82984619 -76.91437927 69.3432251 -76.40769958 68.84185791 C-73.7466922 66.23550536 -71.01296034 63.75787068 -68.17112732 61.35064697 C-62.7538144 56.62087488 -57.73242572 51.49670206 -52.6760788 46.38921165 C-50.87928241 44.57482391 -49.07879265 42.76417491 -47.27726746 40.95448303 C-42.16162253 35.81454559 -37.05182319 30.66882485 -31.9462738 25.51885986 C-28.80957486 22.35538748 -25.66802811 19.19679706 -22.52344513 16.04116249 C-21.33024669 14.84176348 -20.13894817 13.64047121 -18.94960785 12.43724632 C-17.2914102 10.75983892 -15.62714878 9.08867685 -13.96141052 7.41876221 C-13.47406937 6.92265945 -12.98672821 6.4265567 -12.48461914 5.91542053 C-8.52236121 1.96447697 -5.64434701 0.00536291 0 0 Z " fill="#FEFCFC" transform="translate(224.58543395996094,75.74603271484375)"/>
<path d="M0 0 C4.29 0.33 8.58 0.66 13 1 C11.45071107 5.64786678 9.73031131 9.86162467 7.578125 14.22265625 C7.24122147 14.91286865 6.90431793 15.60308105 6.5572052 16.31420898 C5.83359641 17.79570751 5.10835317 19.27640864 4.38162231 20.75637817 C3.23750689 23.08795958 2.09930345 25.42234276 0.96264648 27.75756836 C-2.39163761 34.64454606 -5.75848986 41.52490277 -9.16592407 48.38575745 C-10.4599094 50.99491029 -11.74522556 53.60827814 -13.0291748 56.22238159 C-13.91352551 58.01393161 -14.81059773 59.79918432 -15.70800781 61.58422852 C-18.48504952 67.24425831 -20.40334091 72.21655249 -21.40600586 78.42504883 C-22.66312771 83.87464362 -25.36066422 88.81692165 -27.8125 93.8125 C-28.33392578 94.91787109 -28.85535156 96.02324219 -29.39257812 97.16210938 C-33.36873743 105.37751967 -33.36873743 105.37751967 -36.47436523 108.43994141 C-39.30293767 111.30706664 -40.72611527 113.93697938 -42.453125 117.56640625 C-42.75470016 118.1933136 -43.05627533 118.82022095 -43.36698914 119.46612549 C-44.33861465 121.49337944 -45.29464418 123.52753506 -46.25 125.5625 C-46.92064288 126.97191372 -47.59195295 128.38101015 -48.26391602 129.78979492 C-52.97797425 139.7028827 -57.56566826 149.67068508 -61.98388672 159.71923828 C-63.0604101 162.13559614 -64.16954371 164.53505035 -65.28515625 166.93359375 C-65.65713135 167.74272217 -66.02910645 168.55185059 -66.41235352 169.38549805 C-67.10897257 170.89992129 -67.813205 172.41087968 -68.52709961 173.91723633 C-70.09332418 177.35545864 -71.17786941 180.38209751 -71.58203125 184.15234375 C-72.71028694 194.5386228 -78.94304111 206.56606283 -85.92578125 214.296875 C-89.19209838 218.0219417 -91.22671821 221.94176786 -93.25 226.4375 C-93.58773438 227.14970703 -93.92546875 227.86191406 -94.2734375 228.59570312 C-95.85865497 232.03138114 -97.02249331 235.10080717 -97.8515625 238.81640625 C-99.15436568 244.53590958 -102.26143012 249.4372616 -105.125 254.5 C-105.96998047 256.01980469 -105.96998047 256.01980469 -106.83203125 257.5703125 C-108.21313856 260.05162393 -109.60256451 262.52785944 -111 265 C-116.75906662 265.21913214 -119.40410873 264.58703709 -124 261 C-123.744398 259.06043186 -123.46995354 257.12334011 -123.1875 255.1875 C-122.96126953 253.56908203 -122.96126953 253.56908203 -122.73046875 251.91796875 C-121.98249202 248.93006172 -121.47178858 247.7744578 -119 246 C-118.34 246 -117.68 246 -117 246 C-116.7525 245.175 -116.505 244.35 -116.25 243.5 C-114.81295189 239.47626529 -112.97645485 235.78020976 -111 232 C-110.34 232 -109.68 232 -109 232 C-108.62875 230.80375 -108.2575 229.6075 -107.875 228.375 C-106.05238222 222.80097474 -103.58556147 217.54048886 -101.109375 212.234375 C-99.74657334 209.16784133 -99.74657334 209.16784133 -100.51953125 206.5859375 C-101.27021235 202.54568639 -99.5551002 199.55322178 -97.9375 195.875 C-97.61604004 195.12669922 -97.29458008 194.37839844 -96.96337891 193.60742188 C-90.75955659 179.38357693 -90.75955659 179.38357693 -88 176 C-85.3203125 175.21875 -85.3203125 175.21875 -83 175 C-82.90879883 174.3407251 -82.81759766 173.6814502 -82.72363281 173.00219727 C-81.77401727 169.06244614 -80.14231794 165.62248405 -78.421875 161.96484375 C-78.05844498 161.18129013 -77.69501495 160.39773651 -77.3205719 159.59043884 C-76.53996664 157.90933972 -75.75689216 156.22938537 -74.97158813 154.55047607 C-73.74363366 151.92388241 -72.52359138 149.2937412 -71.30541992 146.66259766 C-67.85737382 139.22424294 -64.39251506 131.79469146 -60.85067749 124.40046692 C-59.61659118 121.8232949 -58.39110929 119.24207341 -57.16589355 116.66067505 C-56.32829283 114.90804556 -55.47531759 113.16279028 -54.62207031 111.41772461 C-54.12416992 110.36979736 -53.62626953 109.32187012 -53.11328125 108.2421875 C-52.67798096 107.3435498 -52.24268066 106.44491211 -51.79418945 105.51904297 C-50.77781613 103.03937014 -50.77781613 103.03937014 -51.55322266 100.61303711 C-52.19664283 96.84990807 -50.66372472 94.24620019 -49.03515625 90.94921875 C-48.72299667 90.29041214 -48.4108371 89.63160553 -48.08921814 88.95283508 C-47.09303839 86.85802391 -46.07816645 84.77292165 -45.0625 82.6875 C-44.38220894 81.26557352 -43.70315788 79.84305307 -43.02539062 78.41992188 C-41.36454999 74.93956849 -39.68689097 71.46779706 -38 68 C-36.35 68.33 -34.7 68.66 -33 69 C-32.73823975 68.14978271 -32.47647949 67.29956543 -32.20678711 66.42358398 C-30.94653957 62.8483359 -29.40600973 59.6029147 -27.69140625 56.22265625 C-27.36863205 55.58267197 -27.04585785 54.94268768 -26.71330261 54.28330994 C-26.02329341 52.91565676 -25.33158227 51.54886112 -24.63830566 50.18286133 C-22.81872983 46.59656469 -21.01258263 43.00352931 -19.20703125 39.41015625 C-18.66669754 38.33539536 -18.66669754 38.33539536 -18.115448 37.23892212 C-14.03784366 29.11071131 -10.12562884 20.90635891 -6.234375 12.6875 C-4.21580078 8.42722764 -2.12384726 4.20872485 0 0 Z " fill="#B33525" transform="translate(357,108)"/>
<path d="M0 0 C4.96709317 0.39751333 6.77639424 2.57630385 9.94140625 6.2734375 C14.07224113 10.98338009 18.34154647 15.46368197 22.83984375 19.82421875 C24.01635035 20.97453337 25.1927822 22.12492446 26.36914062 23.27539062 C28.16259983 25.0254736 29.9596014 26.77122831 31.7668457 28.50708008 C33.55295263 30.22613916 35.32230488 31.96109939 37.08984375 33.69921875 C37.62528305 34.20571457 38.16072235 34.71221039 38.71238708 35.23405457 C44.95449904 41.43158046 47.43727679 48.2643554 47.53100586 56.99958801 C47.52133789 57.97232162 47.51166992 58.94505524 47.50170898 59.94726562 C47.50981346 61.52226082 47.50981346 61.52226082 47.51808167 63.1290741 C47.53051795 66.57592562 47.51411109 70.02193354 47.49609375 73.46875 C47.49624886 75.87813358 47.49773975 78.28751741 47.50050354 80.69689941 C47.50188526 85.73701052 47.489367 90.77683628 47.46655273 95.81689453 C47.4381693 102.26278308 47.44090872 108.70819779 47.45364285 115.1541214 C47.46061272 120.12652603 47.45279571 125.09882202 47.44038582 130.07121277 C47.43588407 132.44735802 47.43552331 134.82351499 47.43945122 137.19966125 C47.4423762 140.52592701 47.42579417 143.85155004 47.40405273 147.17773438 C47.41080521 148.63683479 47.41080521 148.63683479 47.41769409 150.12541199 C47.33734039 157.56080558 46.42032203 165.27763667 41.0480957 170.87890625 C40.43157135 171.53262207 39.815047 172.18633789 39.17984009 172.85986328 C38.46049286 173.5867334 37.74114563 174.31360352 37 175.0625 C36.14860443 175.94019043 35.29720886 176.81788086 34.42001343 177.72216797 C31.38172109 180.83972532 28.30757517 183.92082136 25.23046875 187 C24.10176044 188.13192728 22.97312502 189.26392724 21.84455872 190.39599609 C19.49554782 192.75095436 17.14452067 195.1038781 14.79223633 197.45556641 C11.77305394 200.47464631 8.76086068 203.50060004 5.75030041 206.52827454 C3.42979014 208.85986466 1.10478847 211.18693488 -1.22153282 213.51272583 C-2.33515655 214.62753157 -3.44715457 215.7439637 -4.55750465 216.86203003 C-6.10112345 218.41538657 -7.6508759 219.96235016 -9.20239258 221.5078125 C-10.08284744 222.38969238 -10.96330231 223.27157227 -11.87043762 224.18017578 C-14 226.0625 -14 226.0625 -16 226.0625 C-16.33 227.0525 -16.66 228.0425 -17 229.0625 C-18.4609375 230.5 -18.4609375 230.5 -20.375 232.0625 C-24.96227785 235.90301169 -28.96529201 240.20318562 -32.99609375 244.609375 C-41.53236145 251.58047528 -52.11375746 250.45705086 -62.50390625 250.35546875 C-64.19497804 250.34986481 -65.88605475 250.34559849 -67.57713318 250.34260559 C-72.00112653 250.33121953 -76.42481853 250.30180702 -80.84869385 250.26849365 C-85.37369716 250.23765732 -89.89874975 250.22407143 -94.42382812 250.20898438 C-103.28270493 250.17693048 -112.14128012 250.12421449 -121 250.0625 C-119.02 245.7725 -117.04 241.4825 -115 237.0625 C-114.67 238.3825 -114.34 239.7025 -114 241.0625 C-105.08965748 241.0012459 -96.17963438 240.92410904 -87.26961231 240.82678509 C-83.13215399 240.78208889 -78.99479397 240.74283125 -74.85717773 240.71606445 C-70.86289577 240.69002376 -66.86899221 240.64961632 -62.87494469 240.59931374 C-61.35240072 240.58265012 -59.8297913 240.57113267 -58.30716896 240.56488609 C-56.17158114 240.55523912 -54.03696025 240.52717507 -51.90161133 240.49487305 C-50.6869368 240.48376999 -49.47226227 240.47266693 -48.22077942 240.46122742 C-43.00091786 239.81501678 -39.86803154 237.19216656 -36.29296875 233.515625 C-35.62330078 232.835 -34.95363281 232.154375 -34.26367188 231.453125 C-33.57853516 230.74671875 -32.89339844 230.0403125 -32.1875 229.3125 C-30.82942387 227.91933482 -29.46875198 226.52869519 -28.10546875 225.140625 C-27.50887451 224.52606445 -26.91228027 223.91150391 -26.29760742 223.27832031 C-24.40525364 221.45332797 -22.48202727 219.74765959 -20.48730469 218.03881836 C-14.77500376 213.07197647 -9.45664745 207.70367299 -4.09765625 202.36328125 C-3.5435803 201.81203268 -2.98950436 201.26078411 -2.41863823 200.69283104 C0.5029678 197.78609992 3.42177839 194.87659745 6.33813477 191.96459961 C9.34645346 188.96180602 12.36397132 185.96843349 15.38364315 182.97706318 C17.71261884 180.66668312 20.03488665 178.34964961 22.35534859 176.03072166 C23.46565346 174.92344142 24.57845661 173.81866036 25.69379997 172.71645546 C27.24694833 171.18033267 28.79038818 169.63505809 30.33178711 168.0871582 C31.21144638 167.21114456 32.09110565 166.33513092 32.99742126 165.43257141 C35.95551978 161.93163305 36.1218418 158.9032382 36.1673584 154.42132568 C36.17884918 153.49341721 36.19033997 152.56550873 36.20217896 151.60948181 C36.20958099 150.5984993 36.21698303 149.58751678 36.22460938 148.54589844 C36.23599945 147.47551834 36.24738953 146.40513824 36.25912476 145.30232239 C36.36958789 134.12720184 36.41716557 122.95143012 36.45996094 111.77587891 C36.48225605 106.47379286 36.52405988 101.17240843 36.58300781 95.87060547 C36.65407056 89.46629667 36.69078891 83.06264942 36.70307922 76.65796661 C36.71348119 74.21950477 36.7359083 71.781063 36.77067566 69.34282684 C36.81687706 65.92665968 36.8188818 62.51309003 36.81054688 59.09667969 C36.83414276 58.0937941 36.85773865 57.09090851 36.88204956 56.05763245 C36.80615234 49.61717664 35.41758743 46.3447475 30.84464645 41.77755833 C30.23591312 41.21158908 29.62717979 40.64561983 29 40.0625 C27.82924341 38.86132362 26.66172555 37.65697261 25.49902344 36.44799805 C24.28837182 35.23750131 23.0750757 34.0296446 21.859375 32.82421875 C21.21051331 32.176772 20.56165161 31.52932526 19.89312744 30.86225891 C17.84778538 28.82244722 15.79897442 26.78616229 13.75 24.75 C12.36174561 23.36677082 10.97372284 21.98330915 9.5859375 20.59960938 C6.54361303 17.56704272 3.49910634 14.53668743 0.45257568 11.50834656 C-0.55333448 10.50709632 -1.5360028 9.48215404 -2.4989624 8.43952942 C-4.06629912 6.81356902 -4.06629912 6.81356902 -7 6.0625 C-5.54006595 2.16934253 -4.0760635 0.57604475 0 0 Z " fill="#F6BFBC" transform="translate(374,108.9375)"/>
<path d="M0 0 C4.19374891 1.9062495 7.34178253 4.27140881 10.875 7.1875 C19.06948131 13.68415214 29.10992511 19.41364078 39.375 21.625 C43.75708669 22.63931053 43.75708669 22.63931053 46.0625 26.0625 C46.5859375 27.8828125 46.5859375 27.8828125 47 30 C47.29777344 31.32644531 47.29777344 31.32644531 47.6015625 32.6796875 C48.11878002 35.11405795 48.5704197 37.54906564 49 40 C42.16836718 43.01303396 35.60527737 44.95153759 28.25 46.1875 C27.28553955 46.35475586 26.3210791 46.52201172 25.32739258 46.69433594 C17.89167359 47.94140103 10.54259722 48.79072563 3 49 C1.75089844 49.0515625 0.50179687 49.103125 -0.78515625 49.15625 C-18.17222582 49.66007027 -43.12742751 49.66557232 -57 38 C-56.67758183 36.33118742 -56.34176665 34.66495779 -56 33 C-55.82984375 32.16339844 -55.6596875 31.32679687 -55.484375 30.46484375 C-54.64355023 27.57115425 -53.77289398 25.44928244 -52 23 C-49.0205032 21.60249608 -46.1063575 20.93586463 -42.90625 20.171875 C-31.75010976 17.20996587 -21.02508861 9.44208185 -11.96875 2.49609375 C-8.16541471 -0.39413922 -4.65545502 -0.59467491 0 0 Z " fill="#063136" transform="translate(382,18)"/>
<path d="M0 0 C3.24255684 1.39297713 5.06520499 2.95706192 7.29931641 5.67041016 C10.7523239 9.74704158 14.40953466 13.52316598 18.2109375 17.2734375 C18.86454254 17.92325592 19.51814758 18.57307434 20.19155884 19.24258423 C22.25025917 21.28920555 24.31220839 23.33250289 26.375 25.375 C29.11483397 28.08828887 31.85136462 30.80484757 34.5859375 33.5234375 C35.21503021 34.14423187 35.84412292 34.76502625 36.49227905 35.40463257 C41.92166648 40.80298897 41.92166648 40.80298897 42.12863445 43.96565723 C42.1303103 44.77587173 42.13198614 45.58608622 42.13371277 46.42085266 C42.14011024 47.8150946 42.14011024 47.8150946 42.14663696 49.23750305 C42.14618378 50.26038925 42.14573059 51.28327545 42.14526367 52.3371582 C42.14862228 53.41206512 42.1519809 54.48697205 42.15544128 55.5944519 C42.16497369 59.16323997 42.16689564 62.73198123 42.16796875 66.30078125 C42.17118008 68.77459228 42.17454406 71.24840312 42.17805481 73.72221375 C42.18405205 78.91499268 42.18589413 84.10775495 42.18530273 89.30053711 C42.18463642 95.95879196 42.1988463 102.61692417 42.21607494 109.27515888 C42.2271876 114.38720695 42.22922216 119.49922916 42.22869301 124.61128807 C42.2298745 127.06610672 42.23430574 129.52092601 42.24202538 131.9757328 C42.25180894 135.40878413 42.24895338 138.84160323 42.24291992 142.2746582 C42.24853943 143.29147171 42.25415894 144.30828522 42.25994873 145.35591125 C42.22723149 152.67200522 41.54275976 156.77867717 36.22273254 162.16163635 C35.45288277 162.91766396 35.45288277 162.91766396 34.66748047 163.68896484 C34.12408524 164.23440445 33.58069 164.77984406 33.02082825 165.34181213 C31.22678193 167.13886014 29.42223406 168.9249444 27.6171875 170.7109375 C26.36067314 171.96439106 25.10475149 173.21843903 23.84939575 174.47305298 C21.2159793 177.10186901 18.57773526 179.72570422 15.93554688 182.34570312 C12.56657048 185.68651438 9.20621933 189.03582979 5.84905815 192.38850975 C2.62907367 195.60330666 -0.59556537 198.81341934 -3.8203125 202.0234375 C-4.42711979 202.62836407 -5.03392708 203.23329063 -5.65912247 203.85654831 C-17.34591622 215.49660631 -17.34591622 215.49660631 -23.39100647 220.60528564 C-26.75142464 223.51817707 -29.78370236 226.78258278 -32.86132812 229.98828125 C-36.19579204 233.39645894 -38.11551507 234.92396065 -42.98027039 235.12025452 C-44.19938614 235.11803391 -45.41850189 235.11581329 -46.67456055 235.11352539 C-47.347995 235.11367142 -48.02142944 235.11381744 -48.715271 235.1139679 C-50.93911979 235.11327175 -53.16288461 235.10549332 -55.38671875 235.09765625 C-56.92942764 235.09579101 -58.47213711 235.09436761 -60.0148468 235.09336853 C-64.07383868 235.08955169 -68.13279473 235.07972851 -72.19177246 235.06866455 C-76.33422359 235.05843252 -80.4766805 235.05386707 -84.61914062 235.04882812 C-92.74611018 235.03810551 -100.87305063 235.02103907 -109 235 C-109.33 232.69 -109.66 230.38 -110 228 C-106.54431941 225.8734748 -103.98491672 225.81784249 -99.97241211 225.98266602 C-98.75271225 226.02412247 -97.53301239 226.06557892 -96.27635193 226.10829163 C-95.62589842 226.13330309 -94.97544491 226.15831455 -94.30528069 226.18408394 C-90.81318607 226.30431752 -87.3198431 226.34521277 -83.82617188 226.39648438 C-79.39986175 226.46182129 -74.97984527 226.54984028 -70.55737305 226.75073242 C-52.24187918 227.94590424 -52.24187918 227.94590424 -35.98486328 220.90966797 C-31.84982158 217.03006566 -28.32483838 212.78865632 -24.86746216 208.30557251 C-19.85414575 202.11612206 -13.58333421 198.0156655 -6.92900085 193.77268982 C11.67607581 181.48448133 29.55096454 165.79233822 34.21468925 143.0939312 C36.608455 129.27871883 37.08521606 115.38779402 37.15423584 101.39320374 C37.18714937 97.85024312 37.2879199 94.31470753 37.40307617 90.77355957 C38.01105675 68.08975971 37.30857355 48.56932732 21.17226505 31.36287594 C14.9562199 25.10119833 8.29822399 19.23646636 1.24241829 13.93392754 C-0.74216887 12.37807943 -2.45268767 10.99137144 -4 9 C-4.16218567 5.20613098 -4.16218567 5.20613098 -3 2 C-2.01 1.34 -1.02 0.68 0 0 Z " fill="#FEFCFC" transform="translate(369,115)"/>
<path d="M0 0 C0.33 0 0.66 0 1 0 C1.11678466 8.85042343 1.20515998 17.70057432 1.25906086 26.55160522 C1.28495442 30.66326464 1.31997199 34.77439001 1.37719727 38.88574219 C1.43225284 42.8669546 1.46157187 46.84765939 1.47438622 50.82922363 C1.48349639 52.3344317 1.50127835 53.83961775 1.52865028 55.34460449 C1.83023435 72.64335082 -2.20195747 86.59061249 -14.31640625 99.4609375 C-22.6787842 107.54143754 -32.43829309 113.17029089 -44.1875 113.0625 C-46.09595703 113.04896484 -46.09595703 113.04896484 -48.04296875 113.03515625 C-49.01878906 113.02355469 -49.99460937 113.01195312 -51 113 C-50.29294033 107.62157983 -48.51833974 103.37540188 -46.25390625 98.48828125 C-45.18093818 95.50335761 -44.70267328 93.15536255 -44.2734375 90.0546875 C-42.97296151 82.38363218 -39.44912975 75.7320153 -36.0625 68.8125 C-35.38203006 67.3980683 -34.7030105 65.98293798 -34.02539062 64.56713867 C-33.00042145 62.42597103 -31.97459656 60.28527493 -30.9437561 58.14692688 C-27.86087239 51.7475739 -24.9224969 45.28649768 -22 38.8125 C-12.09674139 17.07614471 -12.09674139 17.07614471 -8.01171875 13.03125 C-5.64854288 10.64513068 -4.3052876 8.21918542 -2.75 5.25 C-1.96882813 3.77273437 -1.96882813 3.77273437 -1.171875 2.265625 C-0.78515625 1.51796875 -0.3984375 0.7703125 0 0 Z " fill="#FDFCFC" transform="translate(329,201)"/>
<path d="M0 0 C0.68586182 0.15146484 1.37172363 0.30292969 2.07836914 0.45898438 C30.05226143 6.46444387 57.62336496 6.92925159 85.78515625 1.375 C88.54458536 0.90779507 91.20850099 0.84910816 94 1 C93.64301802 4.21283786 93.4580313 5.61136738 90.9375 7.75 C88.64465046 10.41266398 88.84445632 10.89901298 89.0625 14.25 C89.23308794 18.76687192 88.34341 21.47080468 85.73046875 25.15234375 C78.18067098 33.21341451 65.19394596 37.39784025 54.37548828 38.19287109 C37.34298862 38.68205516 21.66830717 38.67181286 8 27 C2.74286541 21.21715195 2.9651961 17.78930154 3.2578125 10.1640625 C2.97257119 6.66337371 2.20062231 5.61539929 0 3 C0 2.01 0 1.02 0 0 Z " fill="#042A2D" transform="translate(331,68)"/>
<path d="M0 0 C3.16594651 1.9959228 5.43292647 3.97441455 7.875 6.8125 C8.6175 7.658125 9.36 8.50375 10.125 9.375 C13.35304631 15.71580526 13.77207775 22.85865457 11.75 29.6875 C9.0684855 36.33717498 5.15163953 40.09545025 -1.2578125 43.05078125 C-7.52359549 45.60690611 -13.54008313 44.97201797 -20.125 43.8125 C-27.0217088 40.84846504 -31.09599538 36.25417556 -34.19921875 29.4609375 C-36.24805759 23.59970234 -36.08086821 17.07739897 -33.4375 11.4375 C-26.37324606 -0.66559241 -13.31248588 -5.10214217 0 0 Z " fill="#322C3B" transform="translate(384.125,474.1875)"/>
<path d="M0 0 C3.16594651 1.9959228 5.43292647 3.97441455 7.875 6.8125 C8.6175 7.658125 9.36 8.50375 10.125 9.375 C13.35304631 15.71580526 13.77207775 22.85865457 11.75 29.6875 C9.0684855 36.33717498 5.15163953 40.09545025 -1.2578125 43.05078125 C-7.52359549 45.60690611 -13.54008313 44.97201797 -20.125 43.8125 C-27.0217088 40.84846504 -31.09599538 36.25417556 -34.19921875 29.4609375 C-36.24805759 23.59970234 -36.08086821 17.07739897 -33.4375 11.4375 C-26.37324606 -0.66559241 -13.31248588 -5.10214217 0 0 Z " fill="#322C3B" transform="translate(217.125,474.1875)"/>
<path d="M0 0 C-0.33 2.31 -0.66 4.62 -1 7 C-0.05125 6.505 0.8975 6.01 1.875 5.5 C5 4 5 4 7 4 C7 4.66 7 5.32 7 6 C4.69 7.32 2.38 8.64 0 10 C1.9645126 11.9645126 5.67592851 11.36454474 8.375 11.5 C15.60005543 11.86668514 15.60005543 11.86668514 19 13 C19.33 13.66 19.66 14.32 20 15 C22.02463255 15.65213292 22.02463255 15.65213292 24 16 C23.175 16.70125 22.35 17.4025 21.5 18.125 C18.71499677 20.78065224 18.71499677 20.78065224 18.625 24.25 C18.70475652 26.90645094 18.70475652 26.90645094 20 28 C22.41537838 28.41717279 22.41537838 28.41717279 25 28 C26.73647948 26.32511472 26.73647948 26.32511472 28 24 C28.50660156 23.18144531 29.01320312 22.36289062 29.53515625 21.51953125 C30.45259673 19.94153362 31.35822505 18.35654247 32.24609375 16.76171875 C35.14240647 11.71928578 37.58967145 9.3043992 43 7 C43.99 7.33 44.98 7.66 46 8 C44.87926138 8.83905565 43.75325453 9.67107831 42.625 10.5 C41.99851563 10.9640625 41.37203125 11.428125 40.7265625 11.90625 C39 13 39 13 37 13 C36.75507813 13.87914062 36.51015625 14.75828125 36.2578125 15.6640625 C34.91678207 19.22070842 33.30587544 21.47363254 30.875 24.375 C30.15054688 25.24898438 29.42609375 26.12296875 28.6796875 27.0234375 C28.12539062 27.67570312 27.57109375 28.32796875 27 29 C31.53261768 29.75660388 35.49235716 30.00000635 40 29 C43.82367261 25.50808722 46.28562977 21.37678574 49 17 C50.15418974 15.55606553 51.33616794 14.13318848 52.5625 12.75 C53.366875 11.8425 54.17125 10.935 55 10 C55 13.28247431 54.66923327 13.82566967 52.8125 16.35546875 C52.36132812 16.97744141 51.91015625 17.59941406 51.4453125 18.24023438 C50.72988281 19.20413086 50.72988281 19.20413086 50 20.1875 C49.28457031 21.16879883 49.28457031 21.16879883 48.5546875 22.16992188 C47.37610725 23.78457682 46.18886818 25.39290497 45 27 C45.91313965 26.83866577 45.91313965 26.83866577 46.84472656 26.67407227 C51.93193538 25.82063363 55.38362927 26.06430911 60.078125 28.2109375 C62.4466212 29.25486436 62.4466212 29.25486436 67 30 C67.33 24.06 67.66 18.12 68 12 C68.99 12.495 68.99 12.495 70 13 C70 18.61 70 24.22 70 30 C73.3 29.34 76.6 28.68 80 28 C80.18850945 25.83284513 80.18850945 25.83284513 78.5 23.8125 C76.65308486 20.34953411 76.77242978 17.86869382 77 14 C77.33 14 77.66 14 78 14 C78.226875 15.03125 78.45375 16.0625 78.6875 17.125 C79.93778078 21.21532255 81.3337325 24.60422124 85 27 C89.61094069 28.39217959 94.243612 29.26626762 99 30 C98.566875 29.51789063 98.13375 29.03578125 97.6875 28.5390625 C97.130625 27.90742188 96.57375 27.27578125 96 26.625 C95.443125 25.99851562 94.88625 25.37203125 94.3125 24.7265625 C93 23 93 23 93 21 C96.27152729 21.97261622 97.74545129 22.65767587 99.8125 25.4375 C101 28 101 28 101 31 C105.62 30.01 110.24 29.02 115 28 C115 27.34 115 26.68 115 26 C110.58175484 22.81040129 106.08054647 21.95401237 100.83984375 20.84375 C97.93565597 19.98088265 96.19858708 19.0667773 94 17 C94 16.34 94 15.68 94 15 C94.71285156 15.30164063 95.42570312 15.60328125 96.16015625 15.9140625 C98.90650625 16.96424861 101.58203772 17.68644881 104.4375 18.375 C110.09390751 19.87676857 113.83256825 21.83256825 118 26 C120.43252661 26.46162427 120.43252661 26.46162427 123.125 26.625 C124.49011719 26.73714844 124.49011719 26.73714844 125.8828125 26.8515625 C126.58148438 26.90054687 127.28015625 26.94953125 128 27 C127 29 127 29 125.328125 29.74609375 C124.64234375 29.97425781 123.9565625 30.20242188 123.25 30.4375 C120.77575572 31.26382204 118.95704592 32.03058269 116.81640625 33.5546875 C112.8200522 35.60552106 109.12100486 35.56502749 104.6875 35.6875 C103.85154297 35.72166016 103.01558594 35.75582031 102.15429688 35.79101562 C100.10332228 35.87305461 98.05168462 35.9382151 96 36 C95.505 36.99 95.505 36.99 95 38 C90.24944568 38.04956835 85.49904312 38.08579909 80.74829102 38.10986328 C79.13335547 38.11989896 77.518438 38.13353051 75.90356445 38.15087891 C73.57759125 38.17523465 71.25185905 38.18650747 68.92578125 38.1953125 C68.20787918 38.20563507 67.48997711 38.21595764 66.75032043 38.22659302 C62.71500132 38.22748903 59.63178826 37.78957682 56 36 C55.01 36.99 55.01 36.99 54 38 C48.081503 38.7739573 42.44773384 37.7737478 36.69335938 36.45849609 C34.00791418 36.00134725 31.67990559 35.99718192 28.96484375 36.1171875 C22.50815653 36.17572206 16.70876526 34.78118428 10.5 33.125 C9.43007812 32.85558594 8.36015625 32.58617187 7.2578125 32.30859375 C-0.56781539 30.28812307 -0.56781539 30.28812307 -4 28 C-4.7013284 25.67684969 -5.36485174 23.34210921 -6 21 C-6.7425 19.824375 -6.7425 19.824375 -7.5 18.625 C-9.60971897 14.9329918 -10.96106056 11.29112635 -11 7 C-8.14006266 3.15951272 -4.95413952 0 0 0 Z " fill="#BA3733" transform="translate(164,381)"/>
<path d="M0 0 C3.63 0 7.26 0 11 0 C11.35827881 0.7520874 11.71655762 1.5041748 12.08569336 2.27905273 C13.70077825 5.66624829 15.31909397 9.05189012 16.9375 12.4375 C17.50146484 13.62150391 18.06542969 14.80550781 18.64648438 16.02539062 C19.18466797 17.15009766 19.72285156 18.27480469 20.27734375 19.43359375 C21.02359009 20.99678345 21.02359009 20.99678345 21.78491211 22.59155273 C22.78825253 24.89252199 22.78825253 24.89252199 24 26 C27.96 17.75 31.92 9.5 36 1 C39.63 1 43.26 1 47 1 C47 15.52 47 30.04 47 45 C43.7 45 40.4 45 37 45 C36.67 38.4 36.34 31.8 36 25 C35.04287109 27.03994141 35.04287109 27.03994141 34.06640625 29.12109375 C33.23188361 30.89328228 32.39724206 32.66541481 31.5625 34.4375 C31.14162109 35.33533203 30.72074219 36.23316406 30.28710938 37.15820312 C29.88427734 38.01220703 29.48144531 38.86621094 29.06640625 39.74609375 C28.69459229 40.53685303 28.32277832 41.3276123 27.93969727 42.14233398 C27 44 27 44 26 45 C24.33382885 45.04063832 22.66611905 45.042721 21 45 C18 39 15 33 12 27 C11.67 32.94 11.34 38.88 11 45 C7.37 45 3.74 45 0 45 C0 30.15 0 15.3 0 0 Z " fill="#312C3A" transform="translate(297,473)"/>
<path d="M0 0 C5.6615625 -0.12375 5.6615625 -0.12375 11.4375 -0.25 C12.60853271 -0.28641602 13.77956543 -0.32283203 14.98608398 -0.36035156 C21.76964654 -0.43153391 27.18781889 0.32906473 33 4 C36.36222636 7.44423188 37.26270705 10.18666649 37.5 14.875 C37.24905238 19.92437035 36.32621683 24.08786422 33 28 C26.59959805 32.79015284 19.67482029 32.3528653 12 32 C12 36.29 12 40.58 12 45 C8.04 45 4.08 45 0 45 C0 30.15 0 15.3 0 0 Z " fill="#37313F" transform="translate(401,473)"/>
<path d="M0 0 C6.4659375 -0.1546875 6.4659375 -0.1546875 13.0625 -0.3125 C14.40836182 -0.35802002 15.75422363 -0.40354004 17.14086914 -0.45043945 C24.47481311 -0.5353294 28.63345319 -0.16607236 34 5 C36.88757396 9.39413428 36.50579549 14.91757113 36 20 C34.66759781 24.23233635 33.17752613 26.12302637 29.4375 28.3125 C28.303125 28.869375 27.16875 29.42625 26 30 C25.34 30.33 24.68 30.66 24 31 C19.66396021 31.1393329 15.33919329 31.04254111 11 31 C11 35.29 11 39.58 11 44 C7.37 44 3.74 44 0 44 C0 29.48 0 14.96 0 0 Z " fill="#302B39" transform="translate(235,474)"/>
<path d="M0 0 C0.69867188 -0.00322266 1.39734375 -0.00644531 2.1171875 -0.00976562 C6.17340683 0.03232722 9.3512141 0.52373973 13 2.3125 C13 5.2825 13 8.2525 13 11.3125 C8.05 10.9825 3.1 10.6525 -2 10.3125 C-2.33 11.9625 -2.66 13.6125 -3 15.3125 C-1.96359375 15.83199219 -0.9271875 16.35148437 0.140625 16.88671875 C1.51072854 17.59053906 2.88050302 18.29500017 4.25 19 C4.93191406 19.33966797 5.61382812 19.67933594 6.31640625 20.02929688 C10.50851084 22.20674926 13.43549133 24.19630127 16 28.3125 C16.6121408 33.82176724 16.35653945 37.69725826 13 42.3125 C7.24690438 46.85293331 1.04900297 46.98429724 -6 46.3125 C-15.38193344 44.93056656 -15.38193344 44.93056656 -17 43.3125 C-17.07205511 41.62641034 -17.08386068 39.93749341 -17.0625 38.25 C-17.05347656 37.33089844 -17.04445313 36.41179687 -17.03515625 35.46484375 C-17.02355469 34.75457031 -17.01195313 34.04429687 -17 33.3125 C-16.15179688 33.63992188 -15.30359375 33.96734375 -14.4296875 34.3046875 C-10.79809989 35.37182828 -7.89663699 35.51447218 -4.125 35.4375 C-2.97257812 35.41945313 -1.82015625 35.40140625 -0.6328125 35.3828125 C0.23601562 35.35960937 1.10484375 35.33640625 2 35.3125 C2.33 33.6625 2.66 32.0125 3 30.3125 C2.27941406 30.03019531 1.55882812 29.74789063 0.81640625 29.45703125 C-13.29503916 23.72242167 -13.29503916 23.72242167 -17 16.3125 C-17.40137875 12.13816105 -17.26194303 9.81698287 -15.3125 6.0625 C-10.81894418 0.71881199 -6.79581852 -0.15673013 0 0 Z " fill="#332D3C" transform="translate(129,472.6875)"/>
<path d="M0 0 C3.63 1.65 7.26 3.3 11 5 C9.0826463 11.391179 6.56918218 17.03579183 3.40234375 22.91015625 C1.86356573 26.01506332 1.86356573 26.01506332 1.19921875 29.65234375 C-0.13509867 35.43759725 -3.22549306 40.37372555 -6.125 45.5 C-6.68832031 46.51320313 -7.25164062 47.52640625 -7.83203125 48.5703125 C-9.21313856 51.05162393 -10.60256451 53.52785944 -12 56 C-17.75906662 56.21913214 -20.40410873 55.58703709 -25 52 C-24.744398 50.06043186 -24.46995354 48.12334011 -24.1875 46.1875 C-24.03667969 45.10855469 -23.88585937 44.02960938 -23.73046875 42.91796875 C-22.98249202 39.93006172 -22.47178858 38.7744578 -20 37 C-19.34 37 -18.68 37 -18 37 C-17.7525 36.175 -17.505 35.35 -17.25 34.5 C-15.81295189 30.47626529 -13.97645485 26.78020976 -12 23 C-11.34 23 -10.68 23 -10 23 C-9.649375 21.80375 -9.29875 20.6075 -8.9375 19.375 C-6.69896966 12.5833424 -3.28640655 6.32970905 0 0 Z " fill="#A82E25" transform="translate(258,317)"/>
<path d="M0 0 C3.92919922 3.71191406 3.92919922 3.71191406 4.56640625 6.3046875 C4.53004633 30.22951639 -13.41216346 56.23446361 -24 77 C-27.33333333 75.66666667 -30.66666667 74.33333333 -34 73 C-33.01 72.505 -33.01 72.505 -32 72 C-31.86754883 71.3201001 -31.73509766 70.6402002 -31.59863281 69.93969727 C-30.79172674 65.97723557 -29.13682088 62.61097452 -27.421875 58.96484375 C-27.0584903 58.18106354 -26.69510559 57.39728333 -26.32070923 56.5897522 C-25.13554246 54.03660924 -23.94283851 51.48706645 -22.75 48.9375 C-21.93390706 47.18309405 -21.1183176 45.42845382 -20.30322266 43.67358398 C-18.66041966 40.13879289 -17.01467411 36.60539712 -15.36621094 33.07324219 C-13.20894994 28.45029023 -11.05951391 23.82375518 -8.9140625 19.1953125 C-8.30502153 17.88158785 -7.69597235 16.56786701 -7.08691406 15.25415039 C-6.65820007 14.32942429 -6.65820007 14.32942429 -6.2208252 13.38601685 C-4.15045775 8.92250601 -2.07519094 4.46126981 0 0 Z " fill="#EA6927" transform="translate(306,211)"/>
<path d="M0 0 C5.16078145 2.52943148 8.91345242 5.54670078 12.125 10.3125 C14.27474982 13.41241549 14.72997046 13.90838284 18.5 15.1875 C22.53975319 14.97108465 24.63994376 14.2400375 28 12 C28.9590625 10.7934375 28.9590625 10.7934375 29.9375 9.5625 C33.24961513 5.44744787 36.88993847 3.24346864 42.25 2.625 C45 3 45 3 48 5 C47.67 5.99 47.34 6.98 47 8 C45.453125 8.0928125 45.453125 8.0928125 43.875 8.1875 C38.23488571 9.37010461 35.40220561 12.48993242 31.5625 16.625 C28.11027856 19.82461988 24.78054404 21.81678586 19.984375 22.1328125 C14.67247438 21.78814719 11.75945798 19.84490021 8 16 C6.64837492 14.01231606 5.31306433 12.0133653 4 10 C1.78659333 7.85799355 0.6656455 7.08483717 -2.390625 6.6953125 C-5.78707694 7.09190419 -6.60126745 8.19893592 -8.8125 10.75 C-14.37552437 16.59272951 -18.84036269 19.16271877 -27 19.5625 C-32.850126 19.34883041 -36.61787091 17.84554185 -41 14 C-41.98824269 12.90394901 -42.96774599 11.79994261 -43.9375 10.6875 C-46.36502714 8.12068851 -48.03187546 7.53230505 -51.5625 7.375 C-55.82558094 7.6897241 -58.05216762 8.79949628 -61 12 C-62.39355764 13.95851344 -63.74282547 15.95127113 -65 18 C-65.75 16.4375 -65.75 16.4375 -66 14 C-63.78923121 9.23834414 -61.67213027 5.64076928 -57 3 C-52.3757885 1.87686655 -48.43432783 1.54101509 -43.875 3 C-40.60298951 5.27618121 -37.66781975 7.7818865 -34.734375 10.4765625 C-31.44001374 13.3702582 -28.62696671 13.39538727 -24.37890625 13.34765625 C-18.2629156 12.45385794 -14.112655 7.22380784 -10 3 C-6.66862048 -0.11645181 -4.54649034 -0.77204553 0 0 Z " fill="#101010" transform="translate(105,420)"/>
<path d="M0 0 C4.18772701 0.13972568 8.37511607 0.28787081 12.5625 0.4375 C14.33463867 0.49647461 14.33463867 0.49647461 16.14257812 0.55664062 C21.83013123 0.7637504 27.38995814 1.01968432 33 2 C33.0825 2.61875 33.165 3.2375 33.25 3.875 C33.80328041 6.12662477 33.80328041 6.12662477 35.76953125 7.16015625 C38.34489129 8.12986274 39.73652411 7.931436 42.4375 7.5625 C49.99093809 7.38345554 55.49049364 12.37581936 61 17 C63.25252038 19.2484471 65.09450636 21.44119426 67 24 C52.21829668 27.81463312 34.93232114 22.63976214 22.0625 15.33203125 C16.62780602 11.98703618 11.61682618 8.4116339 7 4 C7 3.34 7 2.68 7 2 C5.35 2.66 3.7 3.32 2 4 C2 3.01 2 2.02 2 1 C1.34 0.67 0.68 0.34 0 0 Z " fill="#EA6623" transform="translate(201,364)"/>
<path d="M0 0 C1.16273438 0.26554687 2.32546875 0.53109375 3.5234375 0.8046875 C31.45231285 7.0320321 59.01033732 7.9040266 87.06640625 1.5859375 C90 1 90 1 94 1 C94.495 5.95 94.495 5.95 95 11 C94.505 10.01 94.505 10.01 94 9 C93.36610352 9.11593506 92.73220703 9.23187012 92.07910156 9.35131836 C89.13710005 9.88591199 86.19359049 10.41172889 83.25 10.9375 C82.25355469 11.11990234 81.25710938 11.30230469 80.23046875 11.49023438 C56.9752395 15.61616214 22.00679681 19.0033984 0 8 C0 5.36 0 2.72 0 0 Z " fill="#EEB358" transform="translate(331,60)"/>
<path d="M0 0 C5.95324421 1.39331247 10.75741484 3.88535757 16 7 C14.84525272 13.33763955 13.00053987 18.83999146 10.1875 24.625 C9.85685547 25.3365625 9.52621094 26.048125 9.18554688 26.78125 C6.89416269 31.58392089 4.19794158 35.74724 1 40 C-4.47932789 38.45454854 -9.11429181 35.84456788 -14 33 C-13.46733269 27.1014929 -11.71068 22.42262096 -9.25 17.0625 C-8.91484375 16.30259766 -8.5796875 15.54269531 -8.234375 14.75976562 C-5.88869953 9.55751947 -3.14134373 4.76155592 0 0 Z " fill="#B23222" transform="translate(270,283)"/>
<path d="M0 0 C2.64 0.33 5.28 0.66 8 1 C7.35954524 5.6664937 5.46130524 9.59234981 3.421875 13.78125 C3.0584903 14.54005463 2.69510559 15.29885925 2.32070923 16.08065796 C1.5400334 17.71027866 0.75700778 19.33877537 -0.02813721 20.96624756 C-2.08636519 25.23435377 -4.125979 29.51130798 -6.1640625 33.7890625 C-6.57365204 34.64831329 -6.98324158 35.50756409 -7.40524292 36.39285278 C-11.25994374 44.50259483 -14.9735561 52.67203048 -18.625 60.875 C-19.04368347 61.81508911 -19.04368347 61.81508911 -19.4708252 62.77416992 C-20.98640039 66.18020555 -22.49620221 69.58874918 -24 73 C-27.33822957 72.38550003 -30.02209492 71.65439171 -33 70 C-32.37773054 65.52285103 -30.6144693 61.8561607 -28.5703125 57.8828125 C-28.22388199 57.19693054 -27.87745148 56.51104858 -27.52052307 55.80438232 C-26.77830677 54.33604958 -26.03346007 52.86904401 -25.28622437 51.40325928 C-23.33341362 47.57195043 -21.39986165 43.7309424 -19.46484375 39.890625 C-19.08022476 39.12841644 -18.69560577 38.36620789 -18.29933167 37.5809021 C-14.13828472 29.31988168 -10.15539771 20.97805169 -6.19921875 12.6171875 C-4.19332303 8.37987594 -2.11201783 4.18537171 0 0 Z " fill="#EA6726" transform="translate(357,108)"/>
<path d="M0 0 C3.63 0 7.26 0 11 0 C11 11.88 11 23.76 11 36 C17.27 36 23.54 36 30 36 C30 38.97 30 41.94 30 45 C20.1 45 10.2 45 0 45 C0 30.15 0 15.3 0 0 Z " fill="#2F2938" transform="translate(150,473)"/>
<path d="M0 0 C0.55171875 0.30679687 1.1034375 0.61359375 1.671875 0.9296875 C4.20540121 2.09442941 6.51171762 2.62057956 9.25 3.125 C10.58804687 3.37636719 10.58804687 3.37636719 11.953125 3.6328125 C12.96632813 3.81457031 12.96632813 3.81457031 14 4 C15.06757772 20.16617697 15.06757772 20.16617697 12.546875 24.49609375 C8.96888678 27.51032332 5.46251923 28.79926207 0.8125 29.4375 C-4.27338471 28.85387389 -7.41491085 26.59383327 -11 23 C-12.25433458 19.23699626 -12.10695422 15.72789091 -12.0625 11.8125 C-12.05798828 11.06291016 -12.05347656 10.31332031 -12.04882812 9.54101562 C-12.03706354 7.69397617 -12.01912865 5.84697787 -12 4 C-8.04 3.34 -4.08 2.68 0 2 C0 1.34 0 0.68 0 0 Z " fill="#F7C76C" transform="translate(377,29)"/>
<path d="M0 0 C3.75212276 2.01502889 5.63644095 3.45466142 8 7 C8.59022577 11.52250916 8.52729459 15.69563971 6.8125 19.9375 C4.13118223 22.9886547 1.97093854 24.66847429 -2.11328125 25.35546875 C-6.32167074 25.61716692 -9.14474264 25.36362093 -12.5 22.6875 C-16.21399713 18.69495309 -16.29086575 15.42203366 -16.21484375 10.21875 C-15.80460427 5.982095 -14.0016785 3.82996219 -10.8125 1.1875 C-7.14501562 -0.3609934 -3.88504347 -0.69945988 0 0 Z " fill="#FAFAFB" transform="translate(377,483)"/>
<path d="M0 0 C3.75212276 2.01502889 5.63644095 3.45466142 8 7 C8.59022577 11.52250916 8.52729459 15.69563971 6.8125 19.9375 C4.13118223 22.9886547 1.97093854 24.66847429 -2.11328125 25.35546875 C-6.32167074 25.61716692 -9.14474264 25.36362093 -12.5 22.6875 C-16.21399713 18.69495309 -16.29086575 15.42203366 -16.21484375 10.21875 C-15.80460427 5.982095 -14.0016785 3.82996219 -10.8125 1.1875 C-7.14501562 -0.3609934 -3.88504347 -0.69945988 0 0 Z " fill="#FAFAFA" transform="translate(210,483)"/>
<path d="M0 0 C0.33 0 0.66 0 1 0 C1.43752093 7.2920155 0.71202398 11.82305762 -4.1875 17.5625 C-17.03829193 28.69985301 -33.5080511 30.71377455 -50 30 C-62.16473803 28.99346139 -73.94672453 25.55534532 -83 17 C-85.0625 14.375 -85.0625 14.375 -86 12 C-85.6875 9.6875 -85.6875 9.6875 -85 8 C-84.525625 8.86625 -84.05125 9.7325 -83.5625 10.625 C-78.22004085 18.454466 -68.41307839 22.50514118 -59.4453125 24.58837891 C-43.0467067 27.34876722 -24.20728195 26.13373148 -9.80078125 17.2890625 C-4.30976035 13.35839678 -1.47548237 9.85289424 -0.375 3.25 C-0.189375 1.64125 -0.189375 1.64125 0 0 Z " fill="#EEB45C" transform="translate(420,80)"/>
<path d="M0 0 C0.66 0.33 1.32 0.66 2 1 C1.67 10.24 1.34 19.48 1 29 C-4.04996859 27.99000628 -8.04810131 26.70915704 -11.16796875 22.37890625 C-12.39503543 18.87053249 -12.20920818 15.41629448 -12.125 11.75 C-12.11597656 11.00492188 -12.10695313 10.25984375 -12.09765625 9.4921875 C-12.07418358 7.66131941 -12.03831525 5.83061762 -12 4 C-8.04 3.34 -4.08 2.68 0 2 C0 1.34 0 0.68 0 0 Z " fill="#F4B657" transform="translate(377,29)"/>
<path d="M0 0 C1.65 0 3.3 0 5 0 C3.5884518 4.56638896 1.7584965 8.80502416 -0.3515625 13.08203125 C-0.68308823 13.76175995 -1.01461395 14.44148865 -1.35618591 15.14181519 C-2.44239328 17.36705535 -3.53370573 19.58975077 -4.625 21.8125 C-5.38118029 23.35958533 -6.13695281 24.90687004 -6.89233398 26.4543457 C-8.46216466 29.66978342 -10.03360064 32.8844295 -11.60595703 36.09863281 C-15.08662286 43.21884554 -18.54091973 50.35183733 -21.99554443 57.48471069 C-23.38319156 60.34958562 -24.77179114 63.21399838 -26.16041565 66.07839966 C-27.44045912 68.71884489 -28.72023255 71.35942098 -30 74 C-30.99 73.34 -31.98 72.68 -33 72 C-30.45999089 66.45757225 -27.9181319 60.91599555 -25.375 55.375 C-24.99439423 54.54564941 -24.61378845 53.71629883 -24.22164917 52.86181641 C-18.29880423 39.95995977 -12.32911606 27.08095152 -6.29248047 14.23193359 C-5.75381348 13.08289551 -5.21514648 11.93385742 -4.66015625 10.75 C-4.19230713 9.75484375 -3.72445801 8.7596875 -3.24243164 7.734375 C-2.08267721 5.18195809 -1.01733243 2.61199728 0 0 Z " fill="#192F2D" transform="translate(365,109)"/>
<path d="M0 0 C3.72433382 1.2125738 7.37802806 2.50859979 11 4 C10.43462345 8.58040665 9.20331765 12.10032374 7.15625 16.2265625 C6.87125641 16.80757217 6.58626282 17.38858185 6.29263306 17.98719788 C5.68355969 19.22747792 5.07113519 20.46611706 4.45562744 21.70321655 C2.83649957 24.95931094 1.24377043 28.2282932 -0.3515625 31.49609375 C-0.66860138 32.14401382 -0.98564026 32.7919339 -1.31228638 33.45948792 C-3.93175198 38.82526634 -6.44175472 44.23458576 -8.875 49.6875 C-9.22522217 50.46794678 -9.57544434 51.24839355 -9.9362793 52.05249023 C-11.73279901 56.07847187 -13.47784596 60.12222291 -15.18359375 64.1875 C-15.72040771 65.44687378 -15.72040771 65.44687378 -16.26806641 66.73168945 C-16.94622691 68.32627021 -17.61203439 69.92618226 -18.26318359 71.53198242 C-19.17578125 73.66796875 -19.17578125 73.66796875 -21 77 C-23.11401367 77.70825195 -23.11401367 77.70825195 -25 78 C-24.3878172 73.98237882 -23.10004955 70.89689624 -21.2265625 67.30078125 C-20.65381592 66.18574219 -20.08106934 65.07070313 -19.4909668 63.921875 C-19.18637543 63.33341797 -18.88178406 62.74496094 -18.56796265 62.13867188 C-13.20534962 51.75326253 -8.21627763 41.27708269 -3.6875 30.5 C-3.22617676 29.40341064 -2.76485352 28.30682129 -2.28955078 27.17700195 C0.22759722 21.10343259 2.14201982 16.12191406 2.1875 9.5 C2.20876953 8.09234375 2.20876953 8.09234375 2.23046875 6.65625 C1.99479903 3.94005663 1.38484654 2.32084954 0 0 Z " fill="#2A3632" transform="translate(307,211)"/>
<path d="M0 0 C2.56630083 0.54195173 3.82007286 0.83868602 5.8125 2.625 C7.51708609 6.03417218 7.03827078 8.48107029 6 12 C1.78267595 23.60866203 1.78267595 23.60866203 -1 25 C-3.1640625 24.22265625 -3.1640625 24.22265625 -5.625 23.0625 C-6.44226563 22.68222656 -7.25953125 22.30195313 -8.1015625 21.91015625 C-8.72804687 21.60980469 -9.35453125 21.30945313 -10 21 C-9.34 20.67 -8.68 20.34 -8 20 C-7.26607981 18.25669251 -7.26607981 18.25669251 -6.6875 16.125 C-4.9377689 10.52405662 -2.5051023 5.2973507 0 0 Z " fill="#E76727" transform="translate(256,320)"/>
<path d="M0 0 C3.875 0.4375 3.875 0.4375 5.875 2.4375 C5.56289339 7.01506359 4.06233261 10.44324046 1.875 14.4375 C0.225 14.1075 -1.425 13.7775 -3.125 13.4375 C-3.31835938 14.07558594 -3.51171875 14.71367187 -3.7109375 15.37109375 C-4.10152344 16.61052734 -4.10152344 16.61052734 -4.5 17.875 C-4.88285156 19.11056641 -4.88285156 19.11056641 -5.2734375 20.37109375 C-6.125 22.4375 -6.125 22.4375 -8.125 23.4375 C-8.23329314 20.54065842 -8.31243954 17.64788981 -8.375 14.75 C-8.40851563 13.93337891 -8.44203125 13.11675781 -8.4765625 12.27539062 C-8.54235279 8.21284043 -8.43394315 5.97437455 -6.3671875 2.3828125 C-3.95417796 0.28929551 -3.12645971 -0.18425903 0 0 Z " fill="#FDF8F7" transform="translate(322.125,162.5625)"/>
<path d="M0 0 C2.4375 1 2.4375 1 4 3 C4.45352711 6.17468977 4.69511624 7.98984447 4 11 C1.875 13.5625 1.875 13.5625 -1 15 C-4.15548924 14.93689022 -6.13769198 14.48864121 -8.875 12.9375 C-10.71730752 9.76463704 -10.52772961 6.56774951 -10 3 C-7.82867609 -1.08719794 -4.198293 -0.44192558 0 0 Z " fill="#12282B" transform="translate(245,354)"/>
<path d="M0 0 C3 0 3 0 5.125 2.0625 C5.56070313 2.51882813 5.99640625 2.97515625 6.4453125 3.4453125 C15.71870069 12.71870069 27.43789078 17.76731275 40 21 C40 21.33 40 21.66 40 22 C31.51074295 21.73387909 24.64475212 20.71685034 17 17 C15.97390625 16.51917969 14.9478125 16.03835938 13.890625 15.54296875 C8.77654406 13.07947854 4.37819067 10.63749175 0 7 C-0.99 6.34 -1.98 5.68 -3 5 C-1.125 1.125 -1.125 1.125 0 0 Z " fill="#0F2929" transform="translate(205,366)"/>
<path d="M0 0 C4.85836654 0.75012482 8.51353277 2.71649005 12.79296875 5.0390625 C13.88544922 5.51472656 13.88544922 5.51472656 15 6 C15.66 5.67 16.32 5.34 17 5 C17.17942163 8.94727588 17.09350689 11.5980513 15 15 C10.76677156 14.37954537 7.47709705 12.89476441 3.6875 10.9375 C2.61886719 10.38964844 1.55023438 9.84179688 0.44921875 9.27734375 C-0.35902344 8.85582031 -1.16726563 8.43429688 -2 8 C-1.125 2.25 -1.125 2.25 0 0 Z " fill="#AB2E25" transform="translate(319,176)"/>
<path d="M0 0 C5.95324421 1.39331247 10.75741484 3.88535757 16 7 C16 7.99 16 8.98 16 10 C9.77012202 9.49487476 4.54525767 6.67395877 -1 4 C-0.34 4.33 0.32 4.66 1 5 C-0.32520678 9.28931662 -1.99121384 13.14528065 -4.0625 17.125 C-5.76761476 20.401822 -7.29466299 23.36011274 -8 27 C-8.66 27 -9.32 27 -10 27 C-11.12011719 25.30712891 -11.12011719 25.30712891 -12 23 C-11.34082031 20.64990234 -11.34082031 20.64990234 -10.078125 18.0859375 C-9.62953125 17.16039062 -9.1809375 16.23484375 -8.71875 15.28125 C-8.2340625 14.3221875 -7.749375 13.363125 -7.25 12.375 C-6.78078125 11.40820312 -6.3115625 10.44140625 -5.828125 9.4453125 C-2.33018544 2.33018544 -2.33018544 2.33018544 0 0 Z " fill="#CE502A" transform="translate(270,283)"/>
<path d="M0 0 C1.5675 -0.061875 3.135 -0.12375 4.75 -0.1875 C6.07257813 -0.23970703 6.07257813 -0.23970703 7.421875 -0.29296875 C10.50090515 0.05692104 11.80558744 0.84081883 14 3 C14.5 6 14.5 6 14 9 C11.80558744 11.15918117 10.50090515 11.94307896 7.421875 12.29296875 C6.54015625 12.25816406 5.6584375 12.22335937 4.75 12.1875 C3.1825 12.125625 1.615 12.06375 0 12 C0 8.04 0 4.08 0 0 Z " fill="#F9F9F9" transform="translate(246,483)"/>
<path d="M0 0 C9.625 -0.25 9.625 -0.25 13 2 C13.3984375 3.875 13.3984375 3.875 13.375 6 C13.38273437 6.70125 13.39046875 7.4025 13.3984375 8.125 C13 10 13 10 10 12 C6.64683663 12.26402861 3.36941342 12.08751723 0 12 C0 8.04 0 4.08 0 0 Z " fill="#FCFBFC" transform="translate(413,483)"/>
<path d="M0 0 C3.63 1.65 7.26 3.3 11 5 C8.56705598 13.66736307 4.34217123 21.17171506 0 29 C-1.17988779 26.12051195 -0.99471178 24.98449591 0.03125 21.9765625 C1.0085023 19.74655592 1.98766218 17.51738431 2.96875 15.2890625 C4.11116304 11.64545728 4.05734786 9.6402225 3 6 C1.06295292 4.10709491 1.06295292 4.10709491 -1 3 C-0.67 2.01 -0.34 1.02 0 0 Z " fill="#0F2A2C" transform="translate(258,317)"/>
<path d="M0 0 C0.33 0 0.66 0 1 0 C1.43752093 7.2920155 0.71202398 11.82305762 -4.1875 17.5625 C-10.55630526 23.08213122 -18.31326774 28 -27 28 C-26.505 26.515 -26.505 26.515 -26 25 C-24.02 24.67 -22.04 24.34 -20 24 C-20 23.34 -20 22.68 -20 22 C-19.19175781 21.62488281 -18.38351562 21.24976562 -17.55078125 20.86328125 C-7.1861107 16.13621085 -7.1861107 16.13621085 -1 7 C-0.61250787 4.67504723 -0.27017161 2.34148732 0 0 Z " fill="#E7B15D" transform="translate(420,80)"/>
<path d="M0 0 C3.72433382 1.2125738 7.37802806 2.50859979 11 4 C10.46515599 9.34844008 8.53309233 13.35796103 6 18 C5.01 18 4.02 18 3 18 C3.03480469 17.26394531 3.06960938 16.52789062 3.10546875 15.76953125 C3.37286701 8.40160777 3.37286701 8.40160777 0 2 C0 1.34 0 0.68 0 0 Z " fill="#0E2C2E" transform="translate(307,211)"/>
<path d="M0 0 C0.33 0 0.66 0 1 0 C1 23.1 1 46.2 1 70 C0.67 70 0.34 70 0 70 C-0.495 38.32 -0.495 38.32 -1 6 C-1.99 6.495 -1.99 6.495 -3 7 C-1.125 1.125 -1.125 1.125 0 0 Z " fill="#FDECEC" transform="translate(329,201)"/>
<path d="M0 0 C3.29714793 0.32971479 4.6226839 0.6226839 7 3 C6.67028521 6.29714793 6.3773161 7.6226839 4 10 C1.5 10.3125 1.5 10.3125 -1 10 C-3 7 -3 7 -2.75 4.4375 C-2 2 -2 2 0 0 Z " fill="#872923" transform="translate(240,356)"/>
<path d="M0 0 C0.66 0 1.32 0 2 0 C1.3850728 5.20638363 -0.24530672 9.54972135 -2.3125 14.3125 C-2.60833984 15.04017578 -2.90417969 15.76785156 -3.20898438 16.51757812 C-4.11328125 18.61328125 -4.11328125 18.61328125 -6 22 C-8.11791992 22.71166992 -8.11791992 22.71166992 -10 23 C-9.42022443 19.52401836 -8.53478895 16.70895302 -6.93359375 13.57421875 C-6.53076172 12.77822266 -6.12792969 11.98222656 -5.71289062 11.16210938 C-5.29201172 10.34548828 -4.87113281 9.52886719 -4.4375 8.6875 C-4.01275391 7.85154297 -3.58800781 7.01558594 -3.15039062 6.15429688 C-2.1056521 4.10003574 -1.05540238 2.04879708 0 0 Z " fill="#1F3230" transform="translate(292,266)"/>
<path d="M0 0 C1.32 0.33 2.64 0.66 4 1 C3.01 1 2.02 1 1 1 C0.7525 1.598125 0.505 2.19625 0.25 2.8125 C-1.69561852 6.2173324 -3.97868156 7.5765265 -7.5625 9.0625 C-11.48468228 10.13218608 -15.40787813 10.85623705 -19.4140625 11.53515625 C-21.64355347 11.93592577 -23.81163769 12.41951892 -26 13 C-21.65524856 7.96923518 -15.13449985 7.23564792 -8.9375 5.78125 C-6.13890763 5.03694352 -3.59170179 4.2958509 -1 3 C-0.67 2.01 -0.34 1.02 0 0 Z " fill="#BD362F" transform="translate(210,378)"/>
<path d="M0 0 C0.68964844 0.144375 1.37929688 0.28875 2.08984375 0.4375 C11.38599838 2.27377746 18.87280641 2.65518359 28 0 C28 0.66 28 1.32 28 2 C22.02086522 5.18887188 16.73534106 5.87174033 10 5 C6.5252168 3.92976677 3.26823604 2.5880366 0 1 C0 0.67 0 0.34 0 0 Z " fill="#BD362F" transform="translate(272,390)"/>
<path d="M0 0 C2.89589652 -0.02706445 5.79153795 -0.04687029 8.6875 -0.0625 C9.91243164 -0.07506836 9.91243164 -0.07506836 11.16210938 -0.08789062 C15.24499084 -0.10442051 19.01651707 -0.03035098 23 1 C23 1.33 23 1.66 23 2 C15.98194143 3.10087193 9.09434233 3.09733092 2 3 C2 2.34 2 1.68 2 1 C1.34 0.67 0.68 0.34 0 0 Z " fill="#F8BC65" transform="translate(368,107)"/>
<path d="M0 0 C0 0.33 0 0.66 0 1 C-8.25 1 -16.5 1 -25 1 C-24.67 0.34 -24.34 -0.32 -24 -1 C-16.26069672 -2.71984517 -7.28154939 -3.37405127 0 0 Z " fill="#BD362F" transform="translate(197,371)"/>
<path d="M0 0 C0.495 0.70125 0.99 1.4025 1.5 2.125 C4.15375607 5.17681947 6.92293092 7.3279072 10.1953125 9.66796875 C12 11 12 11 14 13 C13.67 13.66 13.34 14.32 13 15 C7.85760515 13.33628402 3.65165283 10.47747925 0.625 5.9375 C0 4 0 4 0 0 Z " fill="#EEB35B" transform="translate(334,88)"/>
<path d="M0 0 C0.33 0.66 0.66 1.32 1 2 C1.66 2 2.32 2 3 2 C1.45454854 7.47932789 -1.15543212 12.11429181 -4 17 C-5.6852084 12.92320841 -4.16939007 10.16924407 -2.5625 6.25 C-2.08941406 5.07953125 -1.61632812 3.9090625 -1.12890625 2.703125 C-0.75636719 1.81109375 -0.38382812 0.9190625 0 0 Z " fill="#26322E" transform="translate(262,329)"/>
<path d="M0 0 C-0.969375 0.28875 -1.93875 0.5775 -2.9375 0.875 C-6.10664203 1.64214682 -6.10664203 1.64214682 -7 4 C-14.26 3.67 -21.52 3.34 -29 3 C-29 2.67 -29 2.34 -29 2 C-27.2984375 1.92652344 -27.2984375 1.92652344 -25.5625 1.8515625 C-24.04164602 1.7764586 -22.52081375 1.70091416 -21 1.625 C-20.25621094 1.5940625 -19.51242187 1.563125 -18.74609375 1.53125 C-14.90693369 1.330946 -11.39986447 0.92295367 -7.6875 -0.1015625 C-4.20247317 -0.95066861 -3.21145658 -1.00934024 0 0 Z " fill="#CFA052" transform="translate(400,104)"/>
<path d="M0 0 C0 0.99 0 1.98 0 3 C-1.76858691 3.67260351 -3.53996016 4.33788395 -5.3125 5 C-6.29863281 5.37125 -7.28476562 5.7425 -8.30078125 6.125 C-11 7 -11 7 -14 7 C-13.67 6.01 -13.34 5.02 -13 4 C-11.02 3.67 -9.04 3.34 -7 3 C-7 2.34 -7 1.68 -7 1 C-4 0 -4 0 0 0 Z " fill="#F2B861" transform="translate(407,101)"/>
<path d="M0 0 C0.66 0.33 1.32 0.66 2 1 C-1.22034966 4.22034966 -4.3805818 4.64107893 -8.73828125 5.015625 C-11.77467994 4.99464815 -14.23286276 4.20618803 -17 3 C-17 2.67 -17 2.34 -17 2 C-15.41058594 1.90912109 -15.41058594 1.90912109 -13.7890625 1.81640625 C-12.40102779 1.73199873 -11.01300768 1.64735083 -9.625 1.5625 C-8.92632812 1.52318359 -8.22765625 1.48386719 -7.5078125 1.44335938 C-3.62639508 1.25719866 -3.62639508 1.25719866 0 0 Z " fill="#BC362F" transform="translate(286,378)"/>
<path d="M0 0 C1.1796875 1.578125 1.1796875 1.578125 2 4 C0.8828125 7.234375 0.8828125 7.234375 -0.875 10.75 C-1.44992187 11.92046875 -2.02484375 13.0909375 -2.6171875 14.296875 C-3.07351563 15.18890625 -3.52984375 16.0809375 -4 17 C-5.1796875 15.421875 -5.1796875 15.421875 -6 13 C-4.8828125 9.765625 -4.8828125 9.765625 -3.125 6.25 C-2.55007813 5.07953125 -1.97515625 3.9090625 -1.3828125 2.703125 C-0.92648437 1.81109375 -0.47015625 0.9190625 0 0 Z " fill="#2E3B36" transform="translate(299,251)"/>
<path d="M0 0 C5.42096702 1.35524176 10.0778687 3.36634013 15 6 C14.67 6.99 14.34 7.98 14 9 C9.38 6.69 4.76 4.38 0 2 C0 1.34 0 0.68 0 0 Z " fill="#AD3023" transform="translate(270,283)"/>
<path d="M0 0 C2.31853933 0.92442407 4.62902749 1.86353608 6.9375 2.8125 C7.59685547 3.07353516 8.25621094 3.33457031 8.93554688 3.60351562 C10.66028184 4.319944 12.3349412 5.1540925 14 6 C14.33 6.99 14.66 7.98 15 9 C9.52067211 7.45454854 4.88570819 4.84456788 0 2 C0 1.34 0 0.68 0 0 Z " fill="#A63026" transform="translate(256,314)"/>
<path d="M0 0 C4.95 0.99 9.9 1.98 15 3 C15 3.66 15 4.32 15 5 C9.01006953 5.3152595 5.36439644 4.68219822 0 2 C0 1.34 0 0.68 0 0 Z " fill="#BF372F" transform="translate(273,396)"/>
<path d="M0 0 C3.63078127 0.85818466 6.26029453 2.51194293 9.36328125 4.55859375 C9.03328125 5.21859375 8.70328125 5.87859375 8.36328125 6.55859375 C7.4196875 6.14287109 7.4196875 6.14287109 6.45703125 5.71875 C0.99917917 3.40902646 -3.72482523 1.99651179 -9.63671875 1.55859375 C-5.89006032 -0.93917854 -4.29299893 -0.56912097 0 0 Z " fill="#AE3A2D" transform="translate(251.63671875,387.44140625)"/>
<path d="M0 0 C0.19335938 0.58265625 0.38671875 1.1653125 0.5859375 1.765625 C2.57730398 4.91220408 5.38776087 6.13829761 8.625 7.75 C9.23601562 8.06582031 9.84703125 8.38164062 10.4765625 8.70703125 C11.97905739 9.48175518 13.48885018 10.24229671 15 11 C14.67 11.66 14.34 12.32 14 13 C9.05 10.36 4.1 7.72 -1 5 C-0.67 3.35 -0.34 1.7 0 0 Z " fill="#D3552D" transform="translate(257,309)"/>
<path d="M0 0 C12.87 0.495 12.87 0.495 26 1 C26 1.33 26 1.66 26 2 C25.01604248 2.03758423 25.01604248 2.03758423 24.01220703 2.07592773 C21.04959817 2.1917326 18.08731969 2.31452886 15.125 2.4375 C14.09246094 2.47681641 13.05992187 2.51613281 11.99609375 2.55664062 C11.00996094 2.59853516 10.02382812 2.64042969 9.0078125 2.68359375 C8.09660645 2.72025146 7.18540039 2.75690918 6.24658203 2.79467773 C3.96516519 2.86577065 3.96516519 2.86577065 2 4 C2 3.01 2 2.02 2 1 C1.34 0.67 0.68 0.34 0 0 Z " fill="#E37149" transform="translate(201,364)"/>
<path d="M0 0 C4.455 0.99 4.455 0.99 9 2 C8.67 3.65 8.34 5.3 8 7 C4.2047869 5.50902342 2.38957269 3.24299151 0 0 Z " fill="#FEF9F4" transform="translate(348,105)"/>
<path d="M0 0 C0.33 0 0.66 0 1 0 C1 7.26 1 14.52 1 22 C0.67 22 0.34 22 0 22 C-0.06058594 20.95199219 -0.12117188 19.90398438 -0.18359375 18.82421875 C-0.26801738 17.44529952 -0.35266447 16.06639395 -0.4375 14.6875 C-0.47681641 13.99720703 -0.51613281 13.30691406 -0.55664062 12.59570312 C-0.74927415 9.52838465 -1.02322717 6.93031848 -2 4 C-1.0625 1.8125 -1.0625 1.8125 0 0 Z " fill="#E0DFE1" transform="translate(333,496)"/>
<path d="M0 0 C0.99 0.4021875 0.99 0.4021875 2 0.8125 C5.64939067 2.25705047 9.32245433 3.62871178 13 5 C13 5.33 13 5.66 13 6 C7.32822615 6.45374191 4.4024732 5.65083143 0 2 C0 1.34 0 0.68 0 0 Z " fill="#A3342E" transform="translate(219,381)"/>
<path d="M0 0 C0.33 0 0.66 0 1 0 C1.35050464 5.841744 1.16727335 9.8531808 -2 15 C-2.99 14.67 -3.98 14.34 -5 14 C-4.360625 12.989375 -3.72125 11.97875 -3.0625 10.9375 C-0.93151044 7.24780076 -0.34460387 4.22139745 0 0 Z " fill="#D0B27D" transform="translate(420,80)"/>
<path d="M0 0 C3.3 0 6.6 0 10 0 C9.67 0.99 9.34 1.98 9 3 C6.03 3 3.06 3 0 3 C0 2.01 0 1.02 0 0 Z " fill="#F2B053" transform="translate(361,106)"/>
<path d="M0 0 C1.65 0 3.3 0 5 0 C5 1.32 5 2.64 5 4 C3.68 4.33 2.36 4.66 1 5 C0.67 3.35 0.34 1.7 0 0 Z " fill="#142629" transform="translate(239,359)"/>
<path d="M0 0 C0.66 0 1.32 0 2 0 C1.32829194 3.8063457 0.27253436 7.35206816 -1 11 C-1.99 11 -2.98 11 -4 11 C-3.52269162 9.5410574 -3.04308958 8.08286504 -2.5625 6.625 C-2.29566406 5.81289063 -2.02882813 5.00078125 -1.75390625 4.1640625 C-1 2 -1 2 0 0 Z " fill="#B84A40" transform="translate(262,297)"/>
<path d="M0 0 C0.33 0 0.66 0 1 0 C1 4.95 1 9.9 1 15 C0.67 15 0.34 15 0 15 C-0.33 12.03 -0.66 9.06 -1 6 C-1.99 6.495 -1.99 6.495 -3 7 C-1.125 1.125 -1.125 1.125 0 0 Z " fill="#F8E4E3" transform="translate(329,201)"/>
<path d="M0 0 C0.33 0 0.66 0 1 0 C1.0270043 1.45823212 1.04639787 2.91660675 1.0625 4.375 C1.07410156 5.18710938 1.08570313 5.99921875 1.09765625 6.8359375 C1 9 1 9 0 11 C0.66 11 1.32 11 2 11 C1.34 12.32 0.68 13.64 0 15 C-0.66 14.67 -1.32 14.34 -2 14 C-1.34 9.38 -0.68 4.76 0 0 Z " fill="#37372D" transform="translate(310,218)"/>
<path d="M0 0 C-3.51187196 2.40814077 -5.72656908 3.36629408 -10 3 C-10 2.34 -10 1.68 -10 1 C-8.71073008 0.63720544 -7.41846728 0.28503302 -6.125 -0.0625 C-5.40570313 -0.25972656 -4.68640625 -0.45695312 -3.9453125 -0.66015625 C-2 -1 -2 -1 0 0 Z " fill="#BF372F" transform="translate(304,399)"/>
<path d="M0 0 C-3.4019487 2.09350689 -6.05272412 2.17942163 -10 2 C-10 1.34 -10 0.68 -10 0 C-6.7169902 -1.6415049 -3.57454967 -0.51888624 0 0 Z " fill="#BE372F" transform="translate(190,377)"/>
<path d="M0 0 C-3.42094242 2.28062828 -4.68187222 2.21925007 -8.6875 2.125 C-10.17830078 2.09792969 -10.17830078 2.09792969 -11.69921875 2.0703125 C-12.45847656 2.04710937 -13.21773437 2.02390625 -14 2 C-14 1.67 -14 1.34 -14 1 C-12.41913952 0.63495397 -10.83516093 0.28339494 -9.25 -0.0625 C-8.36828125 -0.25972656 -7.4865625 -0.45695312 -6.578125 -0.66015625 C-4.01320972 -0.99825872 -2.42908361 -0.81158635 0 0 Z " fill="#DE5F48" transform="translate(180,368)"/>
<path d="M0 0 C0.6875 1.6875 0.6875 1.6875 1 4 C-0.375 6.75 -0.375 6.75 -2 9 C-2.33 9 -2.66 9 -3 9 C-2.25 2.25 -2.25 2.25 0 0 Z " fill="#182F2D" transform="translate(309,231)"/>
<path d="M0 0 C1 3 1 3 -0.3125 6.125 C-2 9 -2 9 -4 10 C-3.52449439 8.51965236 -3.04448784 7.04074979 -2.5625 5.5625 C-2.29566406 4.73878906 -2.02882812 3.91507812 -1.75390625 3.06640625 C-1 1 -1 1 0 0 Z " fill="#BC352F" transform="translate(228,390)"/>
<path d="M0 0 C0 0.66 0 1.32 0 2 C-2.31 2.33 -4.62 2.66 -7 3 C-7.33 2.34 -7.66 1.68 -8 1 C-5.29120665 -0.35439668 -2.99066732 -0.06501451 0 0 Z " fill="#C0382F" transform="translate(296,383)"/>
<path d="M0 0 C-0.99 0.495 -0.99 0.495 -2 1 C-2 1.66 -2 2.32 -2 3 C-4.31 2.67 -6.62 2.34 -9 2 C-5.5647952 -0.29013653 -4.014669 -0.17842973 0 0 Z " fill="#F6B861" transform="translate(363,105)"/>
</svg>
